<?xml version="1.0" encoding="utf-8"?>
<!-- Generator: Adobe Illustrator 27.1.0, SVG Export Plug-In . SVG Version: 6.00 Build 0)  -->
<svg version="1.1" id="Calque_1" xmlns="http://www.w3.org/2000/svg" xmlns:xlink="http://www.w3.org/1999/xlink" x="0px" y="0px"
	 viewBox="0 0 376.3 49.6" style="enable-background:new 0 0 376.3 49.6;" xml:space="preserve">
<style type="text/css">
	.st0{fill:#020202;}
	.st1{clip-path:url(#SVGID_00000069391611305357702840000006933736542253336476_);fill:#5A4C4A;}
	.st2{clip-path:url(#SVGID_00000069391611305357702840000006933736542253336476_);fill:#FFFFFF;}
	.st3{clip-path:url(#SVGID_00000069391611305357702840000006933736542253336476_);fill:#F8831A;}
	.st4{clip-path:url(#SVGID_00000069391611305357702840000006933736542253336476_);fill:#349FB8;}
	.st5{clip-path:url(#SVGID_00000069391611305357702840000006933736542253336476_);fill:#AFDA19;}
	.st6{clip-path:url(#SVGID_00000069391611305357702840000006933736542253336476_);fill:#ABC52A;}
</style>
<path id="Tracé_1618" class="st0" d="M191.8,20.4c-0.1,0-0.2-0.1-0.2-0.2c0,0,0,0,0,0V6.6c0-0.1,0.1-0.2,0.2-0.2c0,0,0,0,0,0h1.5
	c0.1,0,0.2,0.1,0.2,0.2c0,0,0,0,0,0v13.6c0,0.1-0.1,0.2-0.2,0.2c0,0,0,0,0,0H191.8z M202.1,15.9c0,0.1-0.1,0.2-0.2,0.2c0,0,0,0,0,0
	h-4.5c0,0-0.1,0-0.1,0.1c0,0,0,0,0,0v1.1c0,0.4,0.1,0.8,0.4,1.2c0.3,0.3,0.6,0.5,1,0.5c0.3,0,0.7-0.1,0.9-0.3
	c0.3-0.2,0.4-0.5,0.5-0.9c0-0.1,0.1-0.2,0.2-0.2l1.5,0.1c0.1,0,0.1,0,0.1,0.1c0,0,0,0.1,0,0.1c-0.1,0.8-0.4,1.5-1,2
	c-0.7,0.5-1.5,0.8-2.3,0.7c-0.9,0-1.8-0.3-2.5-0.9c-0.6-0.6-0.9-1.4-0.9-2.3v-4.2c0-0.9,0.3-1.7,0.9-2.3c0.7-0.6,1.5-0.9,2.5-0.9
	c0.9,0,1.8,0.3,2.5,0.9c0.6,0.6,0.9,1.4,0.9,2.3V15.9z M198.7,11.8c-0.4,0-0.8,0.2-1,0.5c-0.3,0.3-0.4,0.8-0.4,1.2v1.1
	c0,0,0,0.1,0.1,0.1c0,0,0,0,0,0h2.7c0,0,0.1,0,0.1-0.1c0,0,0,0,0,0v-1.1c0-0.4-0.1-0.8-0.4-1.2C199.5,11.9,199.1,11.7,198.7,11.8z
	 M206.8,20.6c-0.9,0-1.7-0.2-2.4-0.7c-0.6-0.5-0.9-1.2-0.9-2v-0.2c0-0.1,0.1-0.2,0.2-0.2c0,0,0,0,0,0h1.4c0.1,0,0.2,0.1,0.2,0.2v0.2
	c0,0.4,0.2,0.7,0.4,0.9c0.3,0.2,0.7,0.4,1,0.4c0.4,0,0.7-0.1,1-0.4c0.2-0.2,0.4-0.6,0.4-0.9c0-0.3-0.1-0.5-0.3-0.7
	c-0.2-0.2-0.4-0.4-0.6-0.5c-0.2-0.1-0.6-0.3-1.1-0.5c-0.4-0.2-0.9-0.4-1.3-0.7c-0.4-0.2-0.7-0.6-0.9-0.9c-0.3-0.5-0.4-1-0.4-1.5
	c0-0.8,0.3-1.6,0.9-2.1c0.6-0.5,1.5-0.8,2.3-0.8c0.8,0,1.7,0.2,2.3,0.8c0.6,0.5,0.9,1.3,0.9,2.1v0.1c0,0.1-0.1,0.2-0.2,0.2
	c0,0,0,0,0,0h-1.4c-0.1,0-0.1,0-0.1-0.1c0,0-0.1-0.1-0.1-0.1V13c0-0.3-0.1-0.7-0.4-0.9c-0.3-0.3-0.6-0.4-1-0.4c-0.4,0-0.7,0.1-1,0.4
	c-0.2,0.2-0.4,0.6-0.4,0.9c0,0.3,0.1,0.5,0.2,0.7c0.2,0.2,0.4,0.3,0.6,0.4c0.2,0.1,0.6,0.3,1.1,0.5c0.5,0.2,0.9,0.4,1.4,0.7
	c0.4,0.2,0.7,0.6,0.9,0.9c0.3,0.4,0.4,1,0.4,1.5c0,0.8-0.3,1.5-0.9,2.1C208.5,20.3,207.6,20.6,206.8,20.6z M221.6,20.4
	c-0.1,0-0.2-0.1-0.2-0.2L221,18c0,0,0,0,0-0.1c0,0,0,0-0.1,0h-3.2c0,0,0,0-0.1,0c0,0,0,0,0,0.1l-0.5,2.3c0,0.1-0.1,0.2-0.2,0.2
	c0,0,0,0,0,0h-1.5c-0.1,0-0.1,0-0.1-0.1c0,0,0-0.1,0-0.2l3-13.6c0-0.1,0.1-0.2,0.2-0.2h1.8c0.1,0,0.2,0.1,0.2,0.2c0,0,0,0,0,0
	l3,13.6v0c0,0.1,0,0.2-0.1,0.2c0,0,0,0,0,0H221.6z M217.9,16.3C217.9,16.3,217.9,16.4,217.9,16.3l2.7,0.1c0,0,0.1,0,0.1-0.1
	l-1.3-6.8c0,0,0-0.1,0-0.1s0,0,0,0.1L217.9,16.3z M228.9,11.5c0,0.1-0.1,0.2-0.2,0.2c0,0,0,0,0,0h-1.4c0,0-0.1,0-0.1,0.1
	c0,0,0,0,0,0v5.6c0,0.4,0.1,0.8,0.3,1.1c0.2,0.2,0.6,0.3,0.9,0.3h0.2c0.1,0,0.2,0.1,0.2,0.2c0,0,0,0,0,0v1.3c0,0.1-0.1,0.2-0.2,0.2
	c0,0,0,0,0,0H228c-0.7,0-1.4-0.1-1.9-0.5c-0.5-0.5-0.7-1.2-0.6-1.9v-6.3c0,0,0-0.1-0.1-0.1c0,0,0,0,0,0h-0.8c-0.1,0-0.2-0.1-0.2-0.2
	c0,0,0,0,0,0v-1c0-0.1,0.1-0.2,0.2-0.2c0,0,0,0,0,0h0.8c0,0,0.1,0,0.1-0.1c0,0,0,0,0,0V7.9c0-0.1,0.1-0.2,0.2-0.2c0,0,0,0,0,0h1.5
	c0.1,0,0.2,0.1,0.2,0.2c0,0,0,0,0,0v2.3c0,0,0,0.1,0.1,0.1c0,0,0,0,0,0h1.4c0.1,0,0.2,0.1,0.2,0.2c0,0,0,0,0,0L228.9,11.5z
	 M237,15.9c0,0.1-0.1,0.2-0.2,0.2c0,0,0,0,0,0h-4.5c0,0-0.1,0-0.1,0.1c0,0,0,0,0,0v1.1c0,0.4,0.1,0.8,0.4,1.2c0.3,0.3,0.6,0.5,1,0.5
	c0.3,0,0.7-0.1,0.9-0.3c0.3-0.2,0.4-0.5,0.5-0.9c0-0.1,0.1-0.2,0.2-0.2l1.5,0.1c0.1,0,0.1,0,0.1,0.1c0,0,0,0.1,0,0.1
	c-0.1,0.8-0.4,1.5-1,2c-0.7,0.5-1.5,0.8-2.3,0.7c-0.9,0-1.8-0.3-2.4-0.9c-0.6-0.6-0.9-1.4-0.9-2.3v-4.2c0-0.9,0.3-1.7,0.9-2.3
	c0.7-0.6,1.5-0.9,2.5-0.9c0.9,0,1.8,0.3,2.5,0.9c0.6,0.6,0.9,1.4,0.9,2.3V15.9z M233.6,11.8c-0.4,0-0.8,0.2-1,0.5
	c-0.3,0.3-0.4,0.8-0.4,1.2v1.1c0,0,0,0.1,0.1,0.1c0,0,0,0,0,0h2.7c0,0,0.1,0,0.1-0.1c0,0,0,0,0,0v-1.1c0-0.4-0.1-0.8-0.4-1.2
	C234.4,11.9,234,11.7,233.6,11.8z M238.9,20.4c-0.1,0-0.2-0.1-0.2-0.2c0,0,0,0,0,0V6.6c0-0.1,0.1-0.2,0.2-0.2c0,0,0,0,0,0h1.5
	c0.1,0,0.2,0.1,0.2,0.2c0,0,0,0,0,0v13.6c0,0.1-0.1,0.2-0.2,0.2c0,0,0,0,0,0H238.9z M243.7,8.8c-0.3,0-0.7-0.1-0.9-0.4
	c-0.2-0.2-0.4-0.6-0.3-0.9c0-0.3,0.1-0.7,0.3-0.9c0.2-0.2,0.6-0.4,0.9-0.4c0.3,0,0.6,0.1,0.9,0.4c0.2,0.2,0.3,0.6,0.3,0.9
	c0,0.3-0.1,0.7-0.3,0.9C244.3,8.6,244,8.8,243.7,8.8z M242.9,20.4c-0.1,0-0.2-0.1-0.2-0.2c0,0,0,0,0,0v-9.8c0-0.1,0.1-0.2,0.2-0.2
	c0,0,0,0,0,0h1.5c0.1,0,0.2,0.1,0.2,0.2c0,0,0,0,0,0v9.8c0,0.1-0.1,0.2-0.2,0.2c0,0,0,0,0,0H242.9z M253.4,15.9
	c0,0.1-0.1,0.2-0.2,0.2c0,0,0,0,0,0h-4.5c0,0-0.1,0-0.1,0.1c0,0,0,0,0,0v1.1c0,0.4,0.1,0.8,0.4,1.2c0.3,0.3,0.6,0.5,1,0.5
	c0.3,0,0.7-0.1,0.9-0.3c0.3-0.2,0.4-0.5,0.5-0.9c0-0.1,0.1-0.2,0.2-0.2l1.5,0.1c0.1,0,0.1,0,0.1,0.1c0,0,0,0.1,0,0.1
	c-0.1,0.8-0.4,1.5-1,2c-0.7,0.5-1.5,0.8-2.3,0.7c-0.9,0-1.8-0.3-2.4-0.9c-0.6-0.6-0.9-1.4-0.9-2.3v-4.2c0-0.9,0.3-1.7,0.9-2.3
	c0.7-0.6,1.5-0.9,2.4-0.9c0.9,0,1.8,0.3,2.5,0.9c0.6,0.6,0.9,1.4,0.9,2.3V15.9z M250,11.8c-0.4,0-0.8,0.2-1,0.5
	c-0.3,0.3-0.4,0.8-0.4,1.2v1.1c0,0,0,0.1,0.1,0.1c0,0,0,0,0,0h2.7c0,0,0.1,0,0.1-0.1c0,0,0,0,0,0v-1.1c0-0.4-0.1-0.8-0.4-1.2
	C250.8,11.9,250.4,11.7,250,11.8z M259,10.2c0.3,0,0.6,0.1,0.9,0.2c0.1,0.1,0.1,0.2,0.1,0.3l-0.3,1.5c0,0.1-0.1,0.2-0.2,0.1
	c-0.2-0.1-0.4-0.1-0.6-0.1c-0.1,0-0.2,0-0.3,0c-0.4,0.1-0.8,0.3-1,0.7c-0.3,0.4-0.4,1-0.4,1.5v5.8c0,0.1-0.1,0.2-0.2,0.2
	c0,0,0,0,0,0h-1.5c-0.1,0-0.2-0.1-0.2-0.2c0,0,0,0,0,0v-9.8c0-0.1,0.1-0.2,0.2-0.2c0,0,0,0,0,0h1.5c0.1,0,0.2,0.1,0.2,0.2
	c0,0,0,0,0,0v1.2c0,0,0,0.1,0,0.1s0,0,0-0.1C257.4,10.8,258.1,10.2,259,10.2z M264.1,20.6c-0.9,0-1.7-0.2-2.4-0.7
	c-0.6-0.5-0.9-1.2-0.9-2v-0.2c0-0.1,0.1-0.2,0.2-0.2c0,0,0,0,0,0h1.4c0.1,0,0.2,0.1,0.2,0.2v0.2c0,0.4,0.2,0.7,0.4,0.9
	c0.3,0.2,0.7,0.4,1,0.4c0.4,0,0.7-0.1,1-0.4c0.2-0.2,0.4-0.6,0.4-0.9c0-0.3-0.1-0.5-0.3-0.7c-0.2-0.2-0.4-0.4-0.6-0.5
	c-0.2-0.1-0.6-0.3-1.1-0.5c-0.4-0.2-0.9-0.4-1.3-0.7c-0.4-0.2-0.7-0.6-0.9-0.9c-0.3-0.5-0.4-1-0.4-1.5c0-0.8,0.3-1.6,0.9-2.1
	c0.6-0.5,1.5-0.8,2.3-0.8c0.8,0,1.7,0.2,2.3,0.8c0.6,0.5,0.9,1.3,0.9,2.1v0.1c0,0.1-0.1,0.2-0.2,0.2c0,0,0,0,0,0h-1.4
	c-0.1,0-0.1,0-0.1-0.1c0,0-0.1-0.1-0.1-0.1V13c0-0.3-0.1-0.7-0.4-0.9c-0.3-0.3-0.6-0.4-1-0.4c-0.4,0-0.7,0.1-1,0.4
	c-0.2,0.2-0.4,0.6-0.4,0.9c0,0.3,0.1,0.5,0.2,0.7c0.2,0.2,0.4,0.3,0.6,0.4c0.2,0.1,0.6,0.3,1.1,0.5c0.5,0.2,0.9,0.4,1.4,0.7
	c0.4,0.2,0.7,0.6,1,0.9c0.3,0.4,0.4,1,0.4,1.5c0,0.8-0.3,1.5-0.9,2.1C265.9,20.3,265,20.6,264.1,20.6z M277.6,6.6
	c0-0.1,0.1-0.2,0.2-0.2c0,0,0,0,0,0h1.5c0.1,0,0.2,0.1,0.2,0.2c0,0,0,0,0,0v13.6c0,0.1-0.1,0.2-0.2,0.2c0,0,0,0,0,0h-1.5
	c-0.1,0-0.2-0.1-0.2-0.2c0,0,0,0,0,0v-0.5c0,0,0,0,0-0.1c0,0,0,0-0.1,0c-0.2,0.3-0.6,0.5-0.9,0.7c-0.3,0.1-0.7,0.2-1,0.2
	c-0.8,0-1.5-0.3-2-0.9c-0.5-0.7-0.8-1.5-0.7-2.3v-4.2c0-0.8,0.2-1.7,0.7-2.3c0.5-0.6,1.3-0.9,2-0.8c0.4,0,0.7,0.1,1,0.2
	c0.3,0.1,0.6,0.4,0.9,0.6c0,0,0,0,0.1,0c0,0,0,0,0-0.1L277.6,6.6z M277.6,13.4c0-0.4-0.1-0.8-0.4-1.2c-0.3-0.3-0.6-0.5-1-0.5
	c-0.4,0-0.8,0.2-1,0.5c-0.3,0.3-0.4,0.8-0.4,1.2v3.9c0,0.4,0.1,0.8,0.4,1.2c0.3,0.3,0.6,0.5,1,0.5c0.4,0,0.8-0.2,1-0.5
	c0.3-0.3,0.4-0.7,0.4-1.2V13.4z M288.1,15.9c0,0.1-0.1,0.2-0.2,0.2c0,0,0,0,0,0h-4.5c0,0-0.1,0-0.1,0.1c0,0,0,0,0,0v1.1
	c0,0.4,0.1,0.8,0.4,1.2c0.3,0.3,0.6,0.5,1,0.5c0.3,0,0.7-0.1,0.9-0.3c0.3-0.2,0.4-0.5,0.5-0.9c0-0.1,0.1-0.2,0.2-0.2l1.5,0.1
	c0.1,0,0.1,0,0.2,0.1c0,0,0,0.1,0,0.1c-0.1,0.8-0.4,1.5-1,2c-0.7,0.5-1.5,0.8-2.3,0.7c-0.9,0-1.8-0.3-2.5-0.9
	c-0.6-0.6-0.9-1.4-0.9-2.3v-4.2c0-0.9,0.3-1.7,0.9-2.3c0.7-0.6,1.5-0.9,2.5-0.9c0.9,0,1.8,0.3,2.5,0.9c0.6,0.6,0.9,1.4,0.9,2.3V15.9
	z M284.8,11.8c-0.4,0-0.8,0.2-1,0.5c-0.3,0.3-0.4,0.8-0.4,1.2v1.1c0,0,0,0.1,0.1,0.1c0,0,0,0,0,0h2.7c0,0,0.1,0,0.1-0.1c0,0,0,0,0,0
	v-1.1c0-0.4-0.1-0.8-0.4-1.2C285.6,11.9,285.2,11.7,284.8,11.8z M294.1,20.4c-0.1,0-0.2-0.1-0.2-0.2c0,0,0,0,0,0V6.6
	c0-0.1,0.1-0.2,0.2-0.2c0,0,0,0,0,0h1.5c0.1,0,0.2,0.1,0.2,0.2c0,0,0,0,0,0v13.6c0,0.1-0.1,0.2-0.2,0.2c0,0,0,0,0,0H294.1z
	 M299.4,6.4c0.1,0,0.2,0.1,0.2,0.2l-1.3,3.9c0,0.1-0.1,0.2-0.2,0.2h-1.1c-0.1,0-0.1,0-0.1-0.1c0,0,0-0.1,0-0.2l0.9-3.8
	c0-0.1,0.1-0.2,0.2-0.2L299.4,6.4z M305.7,20.4c-0.1,0-0.2-0.1-0.2-0.2L305,18c0,0,0,0,0-0.1c0,0,0,0-0.1,0h-3.2c0,0,0,0-0.1,0
	c0,0,0,0,0,0.1l-0.5,2.3c0,0.1-0.1,0.2-0.2,0.2c0,0,0,0,0,0h-1.5c-0.1,0-0.1,0-0.2-0.1c0,0,0-0.1,0-0.2l3-13.6
	c0-0.1,0.1-0.2,0.2-0.2h1.8c0.1,0,0.2,0.1,0.2,0.2c0,0,0,0,0,0l3,13.6v0c0,0.1,0,0.2-0.1,0.2c0,0,0,0,0,0H305.7z M301.9,16.3
	C301.9,16.3,301.9,16.4,301.9,16.3l2.7,0.1c0,0,0.1,0,0.1-0.1l-1.3-6.8c0,0,0-0.1,0-0.1s0,0,0,0.1L301.9,16.3z M313.6,6.6
	c0-0.1,0.1-0.2,0.2-0.2c0,0,0,0,0,0h1.5c0.1,0,0.2,0.1,0.2,0.2c0,0,0,0,0,0v13.6c0,0.1-0.1,0.2-0.2,0.2c0,0,0,0,0,0h-1.5
	c-0.1,0-0.2-0.1-0.2-0.2c0,0,0,0,0,0v-0.5c0,0,0,0,0-0.1c0,0,0,0-0.1,0c-0.2,0.3-0.6,0.5-0.9,0.7c-0.3,0.1-0.7,0.2-1,0.2
	c-0.8,0-1.5-0.3-2-0.9c-0.5-0.7-0.8-1.5-0.7-2.3v-4.2c0-0.8,0.2-1.7,0.7-2.3c0.5-0.6,1.3-0.9,2-0.8c0.4,0,0.7,0.1,1,0.2
	c0.3,0.1,0.6,0.4,0.9,0.6c0,0,0.1,0,0.1,0c0,0,0,0,0-0.1V6.6z M313.6,13.4c0-0.4-0.1-0.8-0.4-1.2c-0.3-0.3-0.6-0.5-1-0.5
	c-0.4,0-0.8,0.2-1,0.5c-0.3,0.3-0.4,0.8-0.4,1.2v3.9c0,0.4,0.1,0.8,0.4,1.2c0.3,0.3,0.6,0.5,1,0.5c0.4,0,0.8-0.2,1-0.5
	c0.3-0.3,0.4-0.7,0.4-1.2V13.4z M320.9,10.1c0.9,0,1.8,0.3,2.4,0.9c0.6,0.6,1,1.5,0.9,2.4v6.8c0,0.1-0.1,0.2-0.2,0.2c0,0,0,0,0,0
	h-1.5c-0.1,0-0.2-0.1-0.2-0.2c0,0,0,0,0,0v-0.4c0,0,0,0,0-0.1c0,0,0,0-0.1,0c-0.5,0.6-1.3,0.9-2.1,0.8c-0.7,0-1.4-0.2-2-0.6
	c-0.6-0.6-1-1.4-0.9-2.3c-0.1-1,0.3-1.9,1-2.6c0.8-0.6,1.8-0.9,2.8-0.8h1.2c0,0,0.1,0,0.1-0.1c0,0,0,0,0,0v-0.6c0-0.5-0.1-1-0.4-1.4
	c-0.2-0.3-0.6-0.5-1-0.5c-0.3,0-0.6,0.1-0.8,0.3c-0.2,0.2-0.4,0.5-0.4,0.9c0,0.1-0.1,0.2-0.2,0.2c0,0,0,0,0,0h-1.6
	c-0.1,0-0.2-0.1-0.2-0.2c0,0,0,0,0,0c0-0.8,0.4-1.6,1-2.1C319.2,10.4,320,10.1,320.9,10.1z M320.5,18.9c0.4,0,0.9-0.1,1.2-0.4
	c0.4-0.3,0.5-0.8,0.5-1.2v-1.4c0,0,0-0.1-0.1-0.1c0,0,0,0,0,0H321c-0.5,0-0.9,0.1-1.3,0.4c-0.3,0.3-0.5,0.8-0.5,1.2
	c0,0.4,0.1,0.8,0.4,1.1C319.8,18.8,320.2,18.9,320.5,18.9z M330.1,10.1c0.8,0,1.5,0.3,2,0.9c0.5,0.7,0.8,1.5,0.7,2.3v4.2
	c0,0.8-0.2,1.7-0.7,2.3c-0.5,0.6-1.3,0.9-2,0.8c-0.4,0-0.7-0.1-1-0.2c-0.3-0.1-0.6-0.4-0.9-0.7c0,0,0,0-0.1,0c0,0,0,0,0,0.1v4.3
	c0,0.1-0.1,0.2-0.2,0.2c0,0,0,0,0,0h-1.5c-0.1,0-0.2-0.1-0.2-0.2c0,0,0,0,0,0V10.5c0-0.1,0.1-0.2,0.2-0.2c0,0,0,0,0,0h1.5
	c0.1,0,0.2,0.1,0.2,0.2c0,0,0,0,0,0v0.5c0,0,0,0,0,0.1c0,0,0.1,0,0.1-0.1c0.2-0.3,0.5-0.5,0.9-0.6C329.4,10.2,329.8,10.1,330.1,10.1
	L330.1,10.1z M331,13.4c0-0.4-0.1-0.8-0.4-1.2c-0.3-0.3-0.6-0.5-1-0.4c-0.4,0-0.8,0.2-1,0.4c-0.3,0.3-0.4,0.7-0.4,1.2v3.9
	c0,0.4,0.1,0.8,0.4,1.2c0.3,0.3,0.6,0.5,1,0.5c0.4,0,0.8-0.2,1-0.5c0.3-0.3,0.4-0.8,0.4-1.2V13.4z M338.8,11.5
	c0,0.1-0.1,0.2-0.2,0.2c0,0,0,0,0,0h-1.4c0,0-0.1,0-0.1,0.1c0,0,0,0,0,0v5.6c0,0.4,0.1,0.8,0.3,1.1c0.2,0.2,0.6,0.3,0.9,0.3h0.2
	c0.1,0,0.2,0.1,0.2,0.2c0,0,0,0,0,0v1.3c0,0.1-0.1,0.2-0.2,0.2c0,0,0,0,0,0h-0.6c-0.7,0-1.4-0.1-1.9-0.5c-0.5-0.5-0.7-1.2-0.6-1.9
	v-6.3c0,0,0-0.1-0.1-0.1c0,0,0,0,0,0h-0.8c-0.1,0-0.2-0.1-0.2-0.2c0,0,0,0,0,0v-1c0-0.1,0.1-0.2,0.2-0.2c0,0,0,0,0,0h0.8
	c0,0,0.1,0,0.1-0.1c0,0,0,0,0,0V7.9c0-0.1,0.1-0.2,0.2-0.2c0,0,0,0,0,0h1.5c0.1,0,0.2,0.1,0.2,0.2c0,0,0,0,0,0v2.3
	c0,0,0,0.1,0.1,0.1c0,0,0,0,0,0h1.4c0.1,0,0.2,0.1,0.2,0.2c0,0,0,0,0,0L338.8,11.5z M343.5,10.1c0.9,0,1.8,0.3,2.4,0.9
	c0.6,0.6,1,1.5,0.9,2.4v6.8c0,0.1-0.1,0.2-0.2,0.2c0,0,0,0,0,0h-1.5c-0.1,0-0.2-0.1-0.2-0.2c0,0,0,0,0,0v-0.4c0,0,0,0,0-0.1
	c0,0,0,0-0.1,0c-0.5,0.6-1.3,0.9-2.1,0.8c-0.7,0-1.4-0.2-2-0.6c-0.6-0.6-1-1.4-0.9-2.3c-0.1-1,0.3-1.9,1.1-2.6
	c0.8-0.6,1.8-0.9,2.8-0.8h1.2c0,0,0.1,0,0.1-0.1c0,0,0,0,0,0v-0.6c0-0.5-0.1-1-0.4-1.4c-0.2-0.3-0.6-0.5-1-0.5
	c-0.3,0-0.6,0.1-0.8,0.3c-0.2,0.2-0.4,0.5-0.4,0.9c0,0.1-0.1,0.2-0.2,0.2c0,0,0,0,0,0h-1.6c-0.1,0-0.2-0.1-0.2-0.2c0,0,0,0,0,0
	c0-0.8,0.4-1.6,1-2.1C341.9,10.4,342.7,10.1,343.5,10.1z M343.2,18.9c0.4,0,0.9-0.1,1.2-0.4c0.4-0.3,0.5-0.8,0.5-1.2v-1.4
	c0,0,0-0.1-0.1-0.1c0,0,0,0,0,0h-1.2c-0.5,0-0.9,0.1-1.3,0.4c-0.3,0.3-0.5,0.8-0.5,1.2c0,0.4,0.1,0.8,0.4,1.1
	C342.5,18.8,342.8,18.9,343.2,18.9L343.2,18.9z M352.7,11.5c0,0.1-0.1,0.2-0.2,0.2c0,0,0,0,0,0h-1.4c0,0-0.1,0-0.1,0.1c0,0,0,0,0,0
	v5.6c0,0.4,0.1,0.8,0.3,1.1c0.2,0.2,0.6,0.3,0.9,0.3h0.2c0.1,0,0.2,0.1,0.2,0.2c0,0,0,0,0,0v1.3c0,0.1-0.1,0.2-0.2,0.2c0,0,0,0,0,0
	h-0.6c-0.7,0-1.4-0.1-1.9-0.5c-0.5-0.5-0.7-1.2-0.6-1.9v-6.3c0,0,0-0.1-0.1-0.1c0,0,0,0,0,0h-0.8c-0.1,0-0.2-0.1-0.2-0.2
	c0,0,0,0,0,0v-1c0-0.1,0.1-0.2,0.2-0.2c0,0,0,0,0,0h0.8c0,0,0.1,0,0.1-0.1c0,0,0,0,0,0V7.9c0-0.1,0.1-0.2,0.2-0.2c0,0,0,0,0,0h1.5
	c0.1,0,0.2,0.1,0.2,0.2c0,0,0,0,0,0v2.3c0,0,0,0.1,0.1,0.1c0,0,0,0,0,0h1.4c0.1,0,0.2,0.1,0.2,0.2c0,0,0,0,0,0L352.7,11.5z
	 M355.3,8.8c-0.3,0-0.7-0.1-0.9-0.4c-0.2-0.2-0.4-0.6-0.3-0.9c0-0.3,0.1-0.7,0.3-0.9c0.2-0.2,0.6-0.4,0.9-0.4c0.3,0,0.6,0.1,0.9,0.4
	c0.2,0.2,0.3,0.6,0.3,0.9c0,0.3-0.1,0.7-0.3,0.9C356,8.6,355.7,8.8,355.3,8.8L355.3,8.8z M354.6,20.4c-0.1,0-0.2-0.1-0.2-0.2
	c0,0,0,0,0,0v-9.8c0-0.1,0.1-0.2,0.2-0.2c0,0,0,0,0,0h1.5c0.1,0,0.2,0.1,0.2,0.2c0,0,0,0,0,0v9.8c0,0.1-0.1,0.2-0.2,0.2c0,0,0,0,0,0
	H354.6z M361.7,20.6c-0.9,0-1.8-0.3-2.5-0.9c-0.6-0.6-0.9-1.4-0.9-2.3v-4.2c0-0.9,0.3-1.7,0.9-2.3c0.7-0.6,1.6-0.9,2.5-0.9
	c0.9,0,1.8,0.3,2.5,0.9c0.6,0.6,0.9,1.4,0.9,2.3v4.2c0,0.9-0.3,1.7-0.9,2.3C363.5,20.3,362.6,20.6,361.7,20.6z M361.7,18.9
	c0.4,0,0.8-0.2,1.1-0.4c0.3-0.3,0.4-0.7,0.4-1.2v-3.9c0-0.4-0.1-0.9-0.4-1.2c-0.3-0.3-0.6-0.5-1.1-0.5c-0.4,0-0.8,0.2-1,0.5
	c-0.3,0.3-0.4,0.7-0.4,1.2v3.9c0,0.4,0.1,0.8,0.4,1.2C360.9,18.8,361.3,18.9,361.7,18.9z M371,10.1c0.7,0,1.5,0.3,1.9,0.9
	c0.5,0.7,0.7,1.6,0.7,2.4v6.9c0,0.1-0.1,0.2-0.2,0.2c0,0,0,0,0,0h-1.5c-0.1,0-0.2-0.1-0.2-0.2c0,0,0,0,0,0v-6.7
	c0-0.5-0.1-0.9-0.4-1.3c-0.2-0.3-0.6-0.5-1-0.5c-0.4,0-0.8,0.2-1.1,0.5c-0.3,0.4-0.4,0.9-0.4,1.4v6.6c0,0.1-0.1,0.2-0.2,0.2
	c0,0,0,0,0,0h-1.5c-0.1,0-0.2-0.1-0.2-0.2c0,0,0,0,0,0v-9.8c0-0.1,0.1-0.2,0.2-0.2c0,0,0,0,0,0h1.5c0.1,0,0.2,0.1,0.2,0.2
	c0,0,0,0,0,0V11c0,0,0,0,0,0.1c0,0,0.1,0,0.1,0C369.5,10.4,370.2,10.1,371,10.1z M194.9,30.1c0.9,0,1.8,0.3,2.4,0.9
	c0.6,0.6,1,1.5,0.9,2.4v6.8c0,0.1-0.1,0.2-0.2,0.2c0,0,0,0,0,0h-1.5c-0.1,0-0.2-0.1-0.2-0.2c0,0,0,0,0,0v-0.4c0,0,0,0,0-0.1
	c0,0,0,0-0.1,0c-0.5,0.6-1.3,0.9-2.1,0.8c-0.7,0-1.4-0.2-2-0.6c-0.6-0.6-1-1.4-0.9-2.3c-0.1-1,0.3-1.9,1.1-2.5
	c0.8-0.6,1.8-0.9,2.8-0.8h1.2c0,0,0.1,0,0.1-0.1c0,0,0,0,0,0v-0.6c0-0.5-0.1-1-0.4-1.3c-0.2-0.3-0.6-0.5-1-0.5
	c-0.3,0-0.6,0.1-0.8,0.3c-0.2,0.2-0.4,0.5-0.4,0.9c0,0.1-0.1,0.2-0.2,0.2c0,0,0,0,0,0h-1.6c-0.1,0-0.2-0.1-0.2-0.2c0,0,0,0,0,0
	c0-0.8,0.4-1.6,1-2.1C193.3,30.4,194.1,30.1,194.9,30.1z M194.6,38.9c0.4,0,0.9-0.1,1.2-0.4c0.4-0.3,0.5-0.8,0.5-1.2v-1.4
	c0,0,0-0.1-0.1-0.1c0,0,0,0,0,0H195c-0.5,0-0.9,0.1-1.3,0.4c-0.3,0.3-0.5,0.8-0.5,1.2c0,0.4,0.1,0.8,0.4,1.1
	C193.9,38.8,194.2,38.9,194.6,38.9z M204.8,30.5c0-0.1,0.1-0.2,0.2-0.2c0,0,0,0,0,0h1.5c0.1,0,0.2,0.1,0.2,0.2c0,0,0,0,0,0v9.8
	c0,0.1-0.1,0.2-0.2,0.2c0,0,0,0,0,0H205c-0.1,0-0.2-0.1-0.2-0.2c0,0,0,0,0,0v-0.6c0,0,0-0.1,0-0.1c0,0-0.1,0-0.1,0
	c-0.4,0.6-1.2,1-1.9,0.9c-0.7,0-1.4-0.2-1.9-0.7c-0.5-0.6-0.8-1.4-0.7-2.2v-7.2c0-0.1,0.1-0.2,0.2-0.2c0,0,0,0,0,0h1.5
	c0.1,0,0.2,0.1,0.2,0.2c0,0,0,0,0,0v6.7c0,1.1,0.5,1.7,1.4,1.7c0.4,0,0.8-0.2,1.1-0.5c0.3-0.4,0.4-0.9,0.4-1.4V30.5z M216.3,40.6
	c-1.9,0.1-3.5-1.3-3.6-3.2c0-0.1,0-0.3,0-0.4v-7.1c0-1,0.3-1.9,1-2.6c0.7-0.7,1.6-1,2.6-1c1,0,1.9,0.3,2.6,1c0.7,0.7,1,1.6,1,2.6
	v0.3c0,0.1-0.1,0.2-0.2,0.2c0,0,0,0,0,0l-1.5,0.1c-0.1,0-0.2-0.1-0.2-0.2c0,0,0,0,0,0v-0.5c0-0.5-0.1-1-0.5-1.3
	c-0.3-0.3-0.8-0.5-1.2-0.5c-0.5,0-0.9,0.2-1.2,0.5c-0.3,0.4-0.5,0.8-0.5,1.3v7.4c0,0.5,0.1,1,0.5,1.3c0.3,0.3,0.8,0.5,1.2,0.5
	c0.5,0,0.9-0.2,1.2-0.5c0.3-0.4,0.5-0.8,0.5-1.3v-0.5c0-0.1,0.1-0.2,0.2-0.2c0,0,0,0,0,0l1.5,0.1c0.1,0,0.2,0.1,0.2,0.2c0,0,0,0,0,0
	V37c0.1,1.9-1.3,3.5-3.2,3.6C216.6,40.6,216.5,40.6,216.3,40.6z M225.9,30.1c0.7,0,1.5,0.3,1.9,0.9c0.5,0.7,0.7,1.6,0.7,2.4v6.9
	c0,0.1-0.1,0.2-0.2,0.2c0,0,0,0,0,0h-1.5c-0.1,0-0.2-0.1-0.2-0.2c0,0,0,0,0,0v-6.7c0-0.5-0.1-0.9-0.4-1.3c-0.2-0.3-0.6-0.5-1-0.5
	c-0.4,0-0.8,0.2-1.1,0.5c-0.3,0.4-0.4,0.9-0.4,1.3v6.6c0,0.1-0.1,0.2-0.2,0.2c0,0,0,0,0,0H222c-0.1,0-0.2-0.1-0.2-0.2c0,0,0,0,0,0
	V26.6c0-0.1,0.1-0.2,0.2-0.2c0,0,0,0,0,0h1.5c0.1,0,0.2,0.1,0.2,0.2c0,0,0,0,0,0V31c0,0,0,0,0,0c0,0,0.1,0,0.1,0
	C224.4,30.4,225.1,30.1,225.9,30.1z M233.7,30.1c1.7-0.1,3.2,1.3,3.3,3c0,0.1,0,0.2,0,0.3v6.8c0,0.1-0.1,0.2-0.2,0.2c0,0,0,0,0,0
	h-1.5c-0.1,0-0.2-0.1-0.2-0.2c0,0,0,0,0,0v-0.4c0,0,0,0,0-0.1c0,0,0,0-0.1,0c-0.5,0.6-1.3,0.9-2.1,0.8c-0.7,0-1.4-0.2-2-0.6
	c-0.6-0.6-1-1.4-0.9-2.3c-0.1-1,0.3-1.9,1.1-2.5c0.8-0.6,1.8-0.9,2.8-0.8h1.2c0,0,0.1,0,0.1-0.1c0,0,0,0,0,0v-0.6
	c0-0.5-0.1-1-0.4-1.3c-0.2-0.3-0.6-0.5-1-0.5c-0.3,0-0.6,0.1-0.8,0.3c-0.2,0.2-0.4,0.5-0.4,0.9c0,0.1-0.1,0.2-0.2,0.2c0,0,0,0,0,0
	h-1.6c-0.1,0-0.2-0.1-0.2-0.2c0,0,0,0,0,0c0-0.8,0.4-1.6,1-2.1C232.1,30.4,232.9,30.1,233.7,30.1z M233.4,38.9
	c0.4,0,0.9-0.1,1.2-0.4c0.4-0.3,0.5-0.8,0.5-1.2v-1.4c0,0,0-0.1-0.1-0.1c0,0,0,0,0,0h-1.2c-0.5,0-0.9,0.1-1.3,0.4
	c-0.3,0.3-0.5,0.8-0.5,1.2c0,0.4,0.1,0.8,0.4,1.1C232.7,38.8,233,38.9,233.4,38.9z M243,30.1c0.7,0,1.5,0.3,1.9,0.9
	c0.5,0.7,0.7,1.6,0.7,2.4v6.9c0,0.1-0.1,0.2-0.2,0.2c0,0,0,0,0,0h-1.5c-0.1,0-0.2-0.1-0.2-0.2c0,0,0,0,0,0v-6.7
	c0-0.5-0.1-0.9-0.4-1.3c-0.2-0.3-0.6-0.5-1-0.5c-0.4,0-0.8,0.2-1.1,0.5c-0.3,0.4-0.4,0.9-0.4,1.3v6.6c0,0.1-0.1,0.2-0.2,0.2
	c0,0,0,0,0,0h-1.5c-0.1,0-0.2-0.1-0.2-0.2c0,0,0,0,0,0v-9.8c0-0.1,0.1-0.2,0.2-0.2c0,0,0,0,0,0h1.5c0.1,0,0.2,0.1,0.2,0.2
	c0,0,0,0,0,0V31c0,0,0,0,0,0.1c0,0,0.1,0,0.1,0C241.5,30.4,242.2,30.1,243,30.1z M252.2,30.5c0-0.1,0.1-0.2,0.2-0.2c0,0,0,0,0,0h1.5
	c0.1,0,0.2,0.1,0.2,0.2c0,0,0,0,0,0v9.7c0.1,1.2-0.3,2.3-1,3.2c-0.9,0.9-2.1,1.3-3.3,1.2l-0.5,0c-0.1,0-0.2-0.1-0.2-0.2c0,0,0,0,0,0
	V43c0-0.1,0.1-0.2,0.2-0.2c0.8,0.1,1.6-0.1,2.2-0.7c0.5-0.6,0.7-1.4,0.6-2.2v-0.4c0,0,0,0,0,0c0,0,0,0-0.1,0c-0.5,0.6-1.2,1-1.9,0.9
	c-0.8,0-1.5-0.3-2-0.9c-0.5-0.7-0.8-1.5-0.7-2.3v-4c0-0.8,0.2-1.7,0.7-2.3c0.5-0.6,1.3-0.9,2-0.9c0.8-0.1,1.5,0.3,1.9,0.9
	c0,0,0.1,0,0.1,0c0,0,0,0,0-0.1V30.5z M250.8,38.8c0.4,0,0.8-0.2,1-0.5c0.3-0.3,0.4-0.7,0.4-1.2v-3.8c0-0.4-0.1-0.8-0.4-1.2
	c-0.3-0.3-0.6-0.5-1-0.5c-0.4,0-0.8,0.2-1,0.5c-0.3,0.3-0.4,0.8-0.4,1.2v3.8c0,0.4,0.1,0.8,0.4,1.2C250,38.6,250.4,38.8,250.8,38.8z
	 M262.6,35.9c0,0.1-0.1,0.2-0.2,0.2c0,0,0,0,0,0h-4.5c0,0-0.1,0-0.1,0.1c0,0,0,0,0,0v1.1c0,0.4,0.1,0.8,0.4,1.2
	c0.3,0.3,0.6,0.5,1,0.5c0.3,0,0.7-0.1,0.9-0.3c0.3-0.2,0.4-0.5,0.5-0.9c0-0.1,0.1-0.2,0.2-0.2l1.5,0.1c0.1,0,0.1,0,0.1,0.1
	c0,0,0,0.1,0,0.1c-0.1,0.8-0.4,1.5-1,2c-1.4,1-3.4,1-4.8-0.1c-0.6-0.6-0.9-1.4-0.9-2.3v-4.2c0-0.9,0.3-1.7,0.9-2.3
	c1.4-1.2,3.5-1.2,4.9,0c0.6,0.6,0.9,1.4,0.9,2.3V35.9z M259.2,31.8c-0.4,0-0.8,0.2-1,0.5c-0.3,0.3-0.4,0.8-0.4,1.2v1.1
	c0,0,0,0.1,0.1,0.1c0,0,0,0,0,0h2.7c0,0,0.1,0,0.1-0.1c0,0,0,0,0,0v-1.1c0-0.4-0.1-0.8-0.4-1.2C260,31.9,259.6,31.7,259.2,31.8z
	 M272.9,30.1c0.7,0,1.5,0.3,1.9,0.9c0.5,0.7,0.7,1.6,0.7,2.5v6.7c0,0.1-0.1,0.2-0.2,0.2c0,0,0,0,0,0h-1.5c-0.1,0-0.2-0.1-0.2-0.2
	c0,0,0,0,0,0v-6.6c0-0.5-0.1-1-0.4-1.4c-0.2-0.3-0.6-0.5-1-0.5c-0.4,0-0.8,0.2-1,0.5c-0.3,0.4-0.4,0.9-0.4,1.3v6.6
	c0,0.1-0.1,0.2-0.2,0.2c0,0,0,0,0,0h-1.5c-0.1,0-0.2-0.1-0.2-0.2c0,0,0,0,0,0v-6.6c0-0.5-0.1-1-0.4-1.4c-0.2-0.3-0.6-0.5-1-0.5
	c-0.4,0-0.8,0.2-1,0.5c-0.3,0.4-0.4,0.9-0.4,1.3v6.6c0,0.1-0.1,0.2-0.2,0.2c0,0,0,0,0,0h-1.5c-0.1,0-0.2-0.1-0.2-0.2c0,0,0,0,0,0
	v-9.8c0-0.1,0.1-0.2,0.2-0.2c0,0,0,0,0,0h1.5c0.1,0,0.2,0.1,0.2,0.2c0,0,0,0,0,0V31c0,0,0,0,0,0.1c0,0,0,0,0.1,0
	c0.3-0.3,0.6-0.5,0.9-0.7c0.3-0.1,0.7-0.2,1-0.2c0.9,0,1.8,0.5,2.2,1.3c0,0,0,0,0.1,0c0,0,0,0,0.1-0.1c0.2-0.4,0.6-0.8,1-1
	C272.1,30.2,272.5,30.1,272.9,30.1z M284.1,35.9c0,0.1-0.1,0.2-0.2,0.2c0,0,0,0,0,0h-4.5c0,0-0.1,0-0.1,0.1c0,0,0,0,0,0v1.1
	c0,0.4,0.1,0.8,0.4,1.2c0.3,0.3,0.6,0.5,1,0.5c0.3,0,0.7-0.1,0.9-0.3c0.3-0.2,0.4-0.5,0.5-0.9c0-0.1,0.1-0.2,0.2-0.2l1.5,0.1
	c0.1,0,0.1,0,0.1,0.1c0,0,0,0.1,0,0.1c-0.1,0.8-0.4,1.5-1,2c-1.4,1-3.4,1-4.8-0.1c-0.6-0.6-0.9-1.4-0.9-2.3v-4.2
	c0-0.9,0.3-1.7,0.9-2.3c1.4-1.2,3.5-1.2,4.9,0c0.6,0.6,0.9,1.4,0.9,2.3V35.9z M280.7,31.8c-0.4,0-0.8,0.2-1,0.5
	c-0.3,0.3-0.4,0.8-0.4,1.2v1.1c0,0,0,0.1,0.1,0.1c0,0,0,0,0,0h2.7c0,0,0.1,0,0.1-0.1c0,0,0,0,0,0v-1.1c0-0.4-0.1-0.8-0.4-1.2
	C281.5,31.9,281.1,31.7,280.7,31.8z M289.9,30.1c0.7,0,1.5,0.3,1.9,0.9c0.5,0.7,0.7,1.6,0.7,2.4v6.9c0,0.1-0.1,0.2-0.2,0.2
	c0,0,0,0,0,0h-1.5c-0.1,0-0.2-0.1-0.2-0.2c0,0,0,0,0,0v-6.7c0-0.5-0.1-0.9-0.4-1.3c-0.2-0.3-0.6-0.5-1-0.5c-0.4,0-0.8,0.2-1.1,0.5
	c-0.3,0.4-0.4,0.9-0.4,1.3v6.6c0,0.1-0.1,0.2-0.2,0.2c0,0,0,0,0,0h-1.5c-0.1,0-0.2-0.1-0.2-0.2c0,0,0,0,0,0v-9.8
	c0-0.1,0.1-0.2,0.2-0.2c0,0,0,0,0,0h1.5c0.1,0,0.2,0.1,0.2,0.2c0,0,0,0,0,0V31c0,0,0,0,0,0.1c0,0,0.1,0,0.1,0
	C288.4,30.4,289.1,30.1,289.9,30.1z M298.5,31.5c0,0.1-0.1,0.2-0.2,0.2c0,0,0,0,0,0h-1.4c0,0-0.1,0-0.1,0.1c0,0,0,0,0,0v5.6
	c0,0.4,0.1,0.8,0.3,1.1c0.2,0.2,0.6,0.3,0.9,0.3h0.2c0.1,0,0.2,0.1,0.2,0.2c0,0,0,0,0,0v1.3c0,0.1-0.1,0.2-0.2,0.2c0,0,0,0,0,0h-0.6
	c-0.7,0-1.4-0.1-1.9-0.5c-0.5-0.5-0.7-1.2-0.7-1.9v-6.3c0,0,0-0.1-0.1-0.1c0,0,0,0,0,0h-0.8c-0.1,0-0.2-0.1-0.2-0.2c0,0,0,0,0,0v-1
	c0-0.1,0.1-0.2,0.2-0.2c0,0,0,0,0,0h0.8c0,0,0.1,0,0.1-0.1c0,0,0,0,0,0v-2.3c0-0.1,0.1-0.2,0.2-0.2c0,0,0,0,0,0h1.5
	c0.1,0,0.2,0.1,0.2,0.2c0,0,0,0,0,0v2.3c0,0,0,0.1,0.1,0.1c0,0,0,0,0,0h1.4c0.1,0,0.2,0.1,0.2,0.2c0,0,0,0,0,0V31.5z M307.5,40.6
	c-1.9,0.1-3.5-1.3-3.6-3.2c0-0.1,0-0.3,0-0.4v-7.1c0-1,0.3-1.9,1-2.6c1.5-1.3,3.7-1.3,5.2,0c0.7,0.7,1,1.6,1,2.6v0.3
	c0,0.1-0.1,0.2-0.2,0.2c0,0,0,0,0,0l-1.5,0.1c-0.1,0-0.2-0.1-0.2-0.2c0,0,0,0,0,0v-0.5c0-0.5-0.1-1-0.5-1.3
	c-0.3-0.3-0.8-0.5-1.2-0.5c-0.5,0-0.9,0.2-1.2,0.5c-0.3,0.4-0.5,0.8-0.5,1.3v7.4c0,0.5,0.1,1,0.5,1.3c0.3,0.3,0.8,0.5,1.2,0.5
	c0.5,0,0.9-0.2,1.2-0.5c0.3-0.4,0.5-0.8,0.5-1.3v-0.5c0-0.1,0.1-0.2,0.2-0.2c0,0,0,0,0,0l1.5,0.1c0.1,0,0.2,0.1,0.2,0.2c0,0,0,0,0,0
	V37c0.1,1.9-1.3,3.5-3.2,3.6C307.8,40.6,307.7,40.6,307.5,40.6L307.5,40.6z M313.2,40.4c-0.1,0-0.2-0.1-0.2-0.2c0,0,0,0,0,0V26.6
	c0-0.1,0.1-0.2,0.2-0.2c0,0,0,0,0,0h1.5c0.1,0,0.2,0.1,0.2,0.2c0,0,0,0,0,0v13.6c0,0.1-0.1,0.2-0.2,0.2c0,0,0,0,0,0H313.2z
	 M317.9,28.8c-0.3,0-0.7-0.1-0.9-0.4c-0.2-0.2-0.4-0.6-0.3-0.9c0-0.3,0.1-0.7,0.3-0.9c0.2-0.2,0.6-0.4,0.9-0.3
	c0.3,0,0.6,0.1,0.9,0.3c0.2,0.2,0.3,0.6,0.3,0.9c0,0.3-0.1,0.7-0.3,0.9C318.6,28.6,318.3,28.8,317.9,28.8z M317.2,40.4
	c-0.1,0-0.2-0.1-0.2-0.2c0,0,0,0,0,0v-9.8c0-0.1,0.1-0.2,0.2-0.2c0,0,0,0,0,0h1.5c0.1,0,0.2,0.1,0.2,0.2c0,0,0,0,0,0v9.8
	c0,0.1-0.1,0.2-0.2,0.2c0,0,0,0,0,0H317.2z M329.6,30.1c0.7,0,1.5,0.3,1.9,0.9c0.5,0.7,0.7,1.6,0.7,2.5v6.7c0,0.1-0.1,0.2-0.2,0.2
	c0,0,0,0,0,0h-1.5c-0.1,0-0.2-0.1-0.2-0.2c0,0,0,0,0,0v-6.6c0-0.5-0.1-1-0.4-1.4c-0.2-0.3-0.6-0.5-1-0.5c-0.4,0-0.8,0.2-1,0.5
	c-0.3,0.4-0.4,0.9-0.4,1.3v6.6c0,0.1-0.1,0.2-0.2,0.2c0,0,0,0,0,0h-1.5c-0.1,0-0.2-0.1-0.2-0.2c0,0,0,0,0,0v-6.6
	c0-0.5-0.1-1-0.4-1.4c-0.2-0.3-0.6-0.5-1-0.5c-0.4,0-0.8,0.2-1,0.5c-0.3,0.4-0.4,0.9-0.4,1.3v6.6c0,0.1-0.1,0.2-0.2,0.2c0,0,0,0,0,0
	h-1.5c-0.1,0-0.2-0.1-0.2-0.2c0,0,0,0,0,0v-9.8c0-0.1,0.1-0.2,0.2-0.2c0,0,0,0,0,0h1.5c0.1,0,0.2,0.1,0.2,0.2c0,0,0,0,0,0V31
	c0,0,0,0,0,0.1c0,0,0,0,0.1,0c0.3-0.3,0.6-0.5,0.9-0.7c0.3-0.1,0.7-0.2,1-0.2c0.9,0,1.8,0.5,2.2,1.3c0,0,0,0,0.1,0c0,0,0,0,0.1-0.1
	c0.2-0.4,0.6-0.8,1-1C328.8,30.2,329.2,30.1,329.6,30.1z M337.5,30.1c1.7-0.1,3.2,1.3,3.3,3c0,0.1,0,0.2,0,0.3v6.8
	c0,0.1-0.1,0.2-0.2,0.2c0,0,0,0,0,0h-1.5c-0.1,0-0.2-0.1-0.2-0.2c0,0,0,0,0,0v-0.4c0,0,0,0,0-0.1c0,0,0,0-0.1,0
	c-0.5,0.6-1.3,0.9-2.1,0.8c-0.7,0-1.4-0.2-2-0.6c-0.6-0.6-1-1.4-0.9-2.3c-0.1-1,0.3-1.9,1-2.5c0.8-0.6,1.8-0.9,2.8-0.8h1.2
	c0,0,0.1,0,0.1-0.1c0,0,0,0,0,0v-0.6c0-0.5-0.1-1-0.4-1.3c-0.2-0.3-0.6-0.5-1-0.5c-0.3,0-0.6,0.1-0.8,0.3c-0.2,0.2-0.4,0.5-0.4,0.9
	c0,0.1-0.1,0.2-0.2,0.2c0,0,0,0,0,0h-1.6c-0.1,0-0.2-0.1-0.2-0.2c0,0,0,0,0,0c0-0.8,0.4-1.6,1-2.1C335.8,30.4,336.6,30.1,337.5,30.1
	z M337.1,38.9c0.4,0,0.9-0.1,1.2-0.4c0.4-0.3,0.5-0.8,0.5-1.2v-1.4c0,0,0-0.1-0.1-0.1c0,0,0,0,0,0h-1.2c-0.5,0-0.9,0.1-1.3,0.4
	c-0.3,0.3-0.5,0.8-0.5,1.2c0,0.4,0.1,0.8,0.4,1.1C336.4,38.8,336.8,38.9,337.1,38.9z M346.7,31.5c0,0.1-0.1,0.2-0.2,0.2c0,0,0,0,0,0
	h-1.4c0,0-0.1,0-0.1,0.1c0,0,0,0,0,0v5.6c0,0.4,0.1,0.8,0.3,1.1c0.2,0.2,0.6,0.3,0.9,0.3h0.2c0.1,0,0.2,0.1,0.2,0.2c0,0,0,0,0,0v1.3
	c0,0.1-0.1,0.2-0.2,0.2c0,0,0,0,0,0h-0.6c-0.7,0-1.4-0.1-1.9-0.5c-0.5-0.5-0.7-1.2-0.6-1.9v-6.3c0,0,0-0.1-0.1-0.1c0,0,0,0,0,0h-0.8
	c-0.1,0-0.2-0.1-0.2-0.2c0,0,0,0,0,0v-1c0-0.1,0.1-0.2,0.2-0.2c0,0,0,0,0,0h0.8c0,0,0.1,0,0.1-0.1c0,0,0,0,0,0v-2.3
	c0-0.1,0.1-0.2,0.2-0.2c0,0,0,0,0,0h1.5c0.1,0,0.2,0.1,0.2,0.2c0,0,0,0,0,0v2.3c0,0,0,0.1,0.1,0.1c0,0,0,0,0,0h1.4
	c0.1,0,0.2,0.1,0.2,0.2c0,0,0,0,0,0V31.5z M349.3,28.8c-0.3,0-0.7-0.1-0.9-0.4c-0.2-0.2-0.4-0.6-0.3-0.9c0-0.3,0.1-0.7,0.3-0.9
	c0.2-0.2,0.6-0.4,0.9-0.4c0.3,0,0.6,0.1,0.9,0.4c0.2,0.2,0.3,0.6,0.3,0.9c0,0.3-0.1,0.7-0.3,0.9C349.9,28.6,349.6,28.8,349.3,28.8z
	 M348.5,40.4c-0.1,0-0.2-0.1-0.2-0.2c0,0,0,0,0,0v-9.8c0-0.1,0.1-0.2,0.2-0.2c0,0,0,0,0,0h1.5c0.1,0,0.2,0.1,0.2,0.2c0,0,0,0,0,0
	v9.8c0,0.1-0.1,0.2-0.2,0.2c0,0,0,0,0,0H348.5z M357,30.5c0-0.1,0.1-0.2,0.2-0.2c0,0,0,0,0,0h1.5c0.1,0,0.2,0.1,0.2,0.2c0,0,0,0,0,0
	v13.6c0,0.1-0.1,0.2-0.2,0.2c0,0,0,0,0,0h-1.5c-0.1,0-0.2-0.1-0.2-0.2c0,0,0,0,0,0v-4.3c0,0,0,0,0-0.1c0,0,0,0-0.1,0
	c-0.2,0.3-0.5,0.5-0.9,0.6c-0.3,0.1-0.7,0.2-1,0.2c-0.8,0-1.5-0.3-2-0.8c-0.5-0.7-0.8-1.5-0.7-2.3v-4.2c0-0.8,0.2-1.6,0.7-2.3
	c0.5-0.6,1.3-0.9,2.1-0.9c0.4,0,0.7,0.1,1,0.2c0.3,0.1,0.7,0.4,0.9,0.6c0,0,0.1,0,0.1,0c0,0,0,0,0-0.1V30.5z M357,33.4
	c0-0.4-0.1-0.8-0.4-1.2c-0.3-0.3-0.6-0.5-1-0.4c-0.4,0-0.8,0.2-1,0.4c-0.3,0.3-0.4,0.7-0.4,1.2v3.9c0,0.4,0.1,0.8,0.4,1.2
	c0.3,0.3,0.6,0.5,1,0.5c0.4,0,0.8-0.2,1-0.5c0.3-0.3,0.4-0.8,0.4-1.2V33.4z M365.7,30.5c0-0.1,0.1-0.2,0.2-0.2c0,0,0,0,0,0h1.5
	c0.1,0,0.2,0.1,0.2,0.2c0,0,0,0,0,0v9.8c0,0.1-0.1,0.2-0.2,0.2c0,0,0,0,0,0h-1.5c-0.1,0-0.2-0.1-0.2-0.2c0,0,0,0,0,0v-0.6
	c0,0,0-0.1,0-0.1c0,0-0.1,0-0.1,0c-0.4,0.6-1.2,1-1.9,0.9c-0.7,0-1.4-0.2-1.9-0.7c-0.5-0.6-0.8-1.4-0.7-2.2v-7.2
	c0-0.1,0.1-0.2,0.2-0.2c0,0,0,0,0,0h1.5c0.1,0,0.2,0.1,0.2,0.2c0,0,0,0,0,0v6.7c0,1.1,0.5,1.7,1.4,1.7c0.4,0,0.8-0.2,1-0.5
	c0.3-0.4,0.4-0.9,0.4-1.4L365.7,30.5z M376.3,35.9c0,0.1-0.1,0.2-0.2,0.2c0,0,0,0,0,0h-4.5c0,0-0.1,0-0.1,0.1c0,0,0,0,0,0v1.1
	c0,0.4,0.1,0.8,0.4,1.2c0.3,0.3,0.6,0.5,1,0.5c0.3,0,0.7-0.1,0.9-0.3c0.3-0.2,0.4-0.5,0.5-0.9c0-0.1,0.1-0.2,0.2-0.2l1.5,0.1
	c0.1,0,0.1,0,0.1,0.1c0,0,0,0.1,0,0.1c-0.1,0.8-0.4,1.5-1,2c-1.4,1-3.4,1-4.8-0.1c-0.6-0.6-0.9-1.4-0.9-2.3v-4.2
	c0-0.9,0.3-1.7,0.9-2.3c1.4-1.2,3.5-1.2,4.9,0c0.6,0.6,0.9,1.4,0.9,2.3L376.3,35.9z M372.9,31.8c-0.4,0-0.8,0.2-1,0.5
	c-0.3,0.3-0.4,0.8-0.4,1.2v1.1c0,0,0,0.1,0.1,0.1c0,0,0,0,0,0h2.7c0,0,0.1,0,0.1-0.1c0,0,0,0,0,0v-1.1c0-0.4-0.1-0.8-0.4-1.2
	C373.7,31.9,373.3,31.7,372.9,31.8z"/>
<path id="Tracé_1617" class="st0" d="M76.2,41.4c-0.3,0-0.6-0.2-0.6-0.5c0,0,0-0.1,0-0.1l-0.8-4.7c0-0.2-0.1-0.2-0.3-0.2h-6.2
	C68.1,36,68,36,68,36.2l-0.8,4.7c0,0.3-0.3,0.5-0.6,0.5c0,0-0.1,0-0.1,0h-5.7c-0.4,0-0.6-0.2-0.5-0.6l7.2-33.1
	c0-0.3,0.3-0.6,0.6-0.5c0,0,0,0,0,0h6.6c0.3,0,0.6,0.2,0.6,0.5c0,0,0,0,0,0l7.2,33.1l0,0.2c0,0.3-0.2,0.4-0.5,0.4L76.2,41.4z
	 M69,30.4c0,0.2,0.1,0.2,0.2,0.2h4.4c0.2,0,0.2-0.1,0.2-0.2L71.5,17c0-0.1-0.1-0.1-0.1-0.1c-0.1,0-0.1,0-0.1,0.1L69,30.4z M97.9,7.7
	c0-0.2,0.1-0.3,0.2-0.4c0.1-0.1,0.3-0.2,0.4-0.2h5.7c0.2,0,0.3,0.1,0.4,0.2c0.1,0.1,0.2,0.3,0.2,0.4v33.1c0,0.2-0.1,0.3-0.2,0.4
	c-0.1,0.1-0.3,0.2-0.4,0.2h-5.7c-0.2,0-0.3-0.1-0.4-0.2c-0.1-0.1-0.2-0.3-0.2-0.4v-0.8c0-0.1,0-0.2-0.1-0.2c-0.1,0-0.2,0-0.2,0.1
	c-1.1,1.2-2.7,1.9-4.4,1.9c-2,0.1-3.8-0.7-5.1-2.2c-1.2-1.8-1.8-3.9-1.7-6.1v-9.5c-0.1-2.2,0.5-4.3,1.7-6.1c1.3-1.5,3.1-2.3,5.1-2.1
	c0.8,0,1.5,0.2,2.3,0.4c0.8,0.3,1.6,0.8,2.2,1.5c0,0.1,0.1,0.1,0.2,0.1c0.1,0,0.1-0.1,0.1-0.2L97.9,7.7z M95.6,35.9
	c0.6,0,1.1-0.2,1.5-0.6c0.4-0.4,0.7-1,0.8-1.6v-9.8c-0.1-0.6-0.3-1.2-0.8-1.6c-0.4-0.4-1-0.6-1.5-0.6c-0.6,0-1.3,0.3-1.7,0.8
	c-0.4,0.6-0.7,1.3-0.6,2v8.5c0,0.7,0.2,1.4,0.6,2C94.4,35.6,95,35.9,95.6,35.9L95.6,35.9z M125,41.4c-0.3,0-0.6-0.2-0.6-0.5
	c0,0,0-0.1,0-0.1l-0.8-4.7c0-0.2-0.1-0.2-0.3-0.2H117c-0.2,0-0.3,0.1-0.3,0.2l-0.8,4.7c0,0.3-0.3,0.5-0.6,0.5c0,0-0.1,0-0.1,0h-5.7
	c-0.4,0-0.6-0.2-0.5-0.6l7.2-33.1c0-0.3,0.3-0.6,0.6-0.5c0,0,0,0,0,0h6.6c0.3,0,0.6,0.2,0.6,0.5c0,0,0,0,0,0l7.1,33.1l0,0.2
	c0,0.3-0.2,0.4-0.5,0.4H125z M117.7,30.4c0,0.2,0.1,0.2,0.2,0.2h4.4c0.2,0,0.2-0.1,0.2-0.2L120.2,17c0-0.1-0.1-0.1-0.1-0.1
	c-0.1,0-0.1,0-0.1,0.1L117.7,30.4z M144.2,41.8c-2.6,0.1-5.2-0.8-7.1-2.6c-1.8-1.9-2.8-4.4-2.7-7V16.3c-0.1-2.6,0.8-5.1,2.7-7
	c1.9-1.8,4.5-2.7,7.1-2.6c2.6-0.1,5.2,0.8,7.1,2.6c1.8,1.8,2.8,4.4,2.7,7v0.5c0,0.2-0.1,0.3-0.2,0.4c-0.1,0.1-0.3,0.2-0.4,0.2
	l-5.7,0.2c-0.4,0-0.6-0.2-0.6-0.5v-1.3c0-0.8-0.2-1.7-0.8-2.3c-0.5-0.6-1.3-0.9-2.1-0.9c-0.8,0-1.5,0.3-2.1,0.9
	c-0.5,0.6-0.8,1.5-0.8,2.3v16.9c0,0.8,0.2,1.6,0.8,2.3c0.5,0.6,1.3,0.9,2.1,0.9c0.8,0,1.6-0.3,2.1-0.9c0.5-0.6,0.8-1.4,0.8-2.3v-1.3
	c0-0.2,0.1-0.3,0.2-0.4c0.1-0.1,0.3-0.2,0.4-0.2l5.7,0.2c0.2,0,0.3,0.1,0.4,0.2c0.1,0.1,0.2,0.3,0.2,0.4v0.5c0.1,2.6-0.9,5.2-2.7,7
	C149.4,41,146.9,41.9,144.2,41.8z M168.7,41.8c-2.6,0.1-5.2-0.8-7.1-2.6c-1.8-1.9-2.8-4.4-2.7-7V16.3c-0.1-2.6,0.8-5.1,2.7-7
	c1.9-1.8,4.5-2.7,7.1-2.6c2.6-0.1,5.2,0.8,7.1,2.6c1.8,1.8,2.8,4.4,2.7,7v0.5c0,0.2-0.1,0.3-0.2,0.4c-0.1,0.1-0.3,0.2-0.4,0.2
	l-5.7,0.2c-0.4,0-0.6-0.2-0.6-0.5v-1.3c0-0.8-0.2-1.7-0.8-2.3c-0.5-0.6-1.3-0.9-2.1-0.9c-0.8,0-1.5,0.3-2.1,0.9
	c-0.5,0.6-0.8,1.5-0.8,2.3v16.9c0,0.8,0.2,1.6,0.8,2.3c0.5,0.6,1.3,0.9,2.1,0.9c0.8,0,1.6-0.3,2.1-0.9c0.5-0.6,0.8-1.4,0.8-2.3v-1.3
	c0-0.2,0.1-0.3,0.2-0.4c0.1-0.1,0.3-0.2,0.4-0.2l5.7,0.2c0.2,0,0.3,0.1,0.4,0.2c0.1,0.1,0.2,0.3,0.2,0.4v0.5c0.1,2.6-0.9,5.2-2.7,7
	C173.9,41,171.3,41.9,168.7,41.8z"/>
<g>
	<defs>
		<rect id="SVGID_1_" x="0" y="0" width="49.6" height="49.6"/>
	</defs>
	<clipPath id="SVGID_00000068649275090123727400000015955126629154896304_">
		<use xlink:href="#SVGID_1_"  style="overflow:visible;"/>
	</clipPath>
	<path id="Tracé_1473" style="clip-path:url(#SVGID_00000068649275090123727400000015955126629154896304_);fill:#5A4C4A;" d="
		M38.2,36.8c-2.2,2.5-6,2.6-8.5,0.4s-2.6-6-0.4-8.5l0,0l-4.4-4l4-4.5c2.5,2.2,6.3,2,8.5-0.5c2.2-2.5,2-6.2-0.4-8.4l4-4.4
		c9.8,8.9,10.6,24,1.7,33.8L38.2,36.8z"/>
	<path id="Tracé_1474" style="clip-path:url(#SVGID_00000068649275090123727400000015955126629154896304_);fill:#5A4C4A;" d="
		M48.6,18.4c-0.2-0.7-0.6-2-0.4-1.8v-0.2C48.4,17,49.2,19.7,48.6,18.4"/>
	<path id="Tracé_1475" style="clip-path:url(#SVGID_00000068649275090123727400000015955126629154896304_);fill:#FFFFFF;" d="
		M48.2,18.7C48,18.1,48.2,18.6,48.2,18.7c0.2,0.2,0.2,0.5,0.3,0.8C48.5,19.8,48.3,19.1,48.2,18.7"/>
	<path id="Tracé_1476" style="clip-path:url(#SVGID_00000068649275090123727400000015955126629154896304_);fill:#5A4C4A;" d="
		M47.1,18.6l0,0.3c0-0.3-0.1-0.6-0.2-0.9c0.2,0.3,0.3,0.6,0.4,0.9C47.2,18.8,47.1,18.4,47.1,18.6"/>
	<path id="Tracé_1477" style="clip-path:url(#SVGID_00000068649275090123727400000015955126629154896304_);fill:#5A4C4A;" d="
		M41.4,7.2c-0.2,0,0.2,0.8,0.8,1.6l-0.5-0.1c-0.3-0.4-0.7-0.8-1.1-1.2l-0.1-0.1l0,0c1.3-0.1,0.4,0,0.6,0l0,0l0,0l0,0l0,0l0,0L41,7.6
		L40.6,8L40,8.7c-0.3,0.4,0.9-0.8,0.1,0.1c-0.1,0.1-0.1,0-0.3,0.1c-0.2,0.3-0.4,0.5-0.5,0.8c-0.1,0.2-0.2,0.4-0.4,0.5l-0.4,0.4
		c-0.1,0.1-0.3,0.3-0.5,0.5c-0.1,0-0.2,0.1-0.3,0.1c0.1,0.1,0.2,0.2,0.2,0.3c0.2,0.2,0.4,0.5,0.5,0.7c0.3,0.5,0.6,1,0.7,1.6
		c0.4,1.1,0.4,2.3,0.1,3.5c-0.5,2.3-2.3,4.2-4.6,4.8c-0.6,0.3-1.3,0.4-2,0.4c-0.8,0-1.7-0.2-2.5-0.4v-0.1c-0.5-0.1-0.9-0.3-1.3-0.6
		c0,0,0-0.1-0.1-0.1c0,0-0.1,0-0.1,0.1c-0.1,0.1-0.4,0.3-0.5,0.5c-0.1,0,0-0.1,0.1-0.2c0.1-0.1,0.4-0.4,0.4-0.5
		c0.1-0.1,0.1-0.1,0.2-0.2c0,0,0.1,0,0-0.1c-0.4,0.4-0.9,0.9-1.2,1.4c-0.4,0.6-0.9,1.1-1.4,1.5c-0.2,0.2-0.3,0.4-0.5,0.5
		c-0.1,0.1-0.1,0.1-0.2,0.2c0,0.1-0.1,0.1-0.1,0.2l0.2,0.1c0.1,0,0-0.1,0.2-0.1l0.1,0.1l0.3,0.3l0.6,0.6c0.4,0.4,0.6,0.7,0.9,1
		s0.5,0.6,0.8,0.9c0.2,0.2,0.3,0.3,0.6,0.6l0.5,0.4c0,0,0.1,0.1,0.1,0.1l-0.1,0.1l-0.2,0.3c0,0-0.1,0.2-0.3,0.5
		C29.1,29.8,29,30,29,30.2c0,0.1,0,0.2,0,0.2c0.1-0.1,0.1-0.1,0.1-0.2l0.4-0.5l0.5-0.7l0.1-0.2c0.1-0.1-0.1-0.1-0.1-0.1l-0.3-0.3
		l-0.4-0.4l-0.2-0.2L29,27.6l0.8,0.7l0.5,0.4c-0.1,0.2-0.2,0.3-0.4,0.5s-0.2,0.3-0.3,0.4c-0.1,0.1-0.1,0.2-0.2,0.3
		c0,0.1-0.1,0.1,0,0.1c-0.5,0.6-0.8,1.4-0.8,2.2c0,0.8,0.1,1.3-0.2,0.3c0.1-0.7,0.3-1.5,0.5-2.2c-1.2,2.2-0.7,5,1.2,6.6
		c0.2,0.1,0.4,0.2,0.6,0.3c0.5,0.6,1.2,1,1.9,1.1c0.5,0.1,1.1,0.1,0.9,0c-0.5-0.1-1.1-0.2-1.6-0.4c-0.7-0.3-1.1-0.6-0.3-0.3
		c1.1,0.5,2.3,0.6,3.5,0.3c1-0.2,1.9-0.7,2.7-1.4c-0.8,0.8-1.7,1.5-2.8,1.9c-2.3,0.6-4.7-0.2-6.1-2c-1.4-1.9-1.7-4.4-0.7-6.5
		c0.1-0.1,0.8-1,0.7-0.7c0.1-0.1,0.2-0.2,0.3-0.4c0.1-0.1,0-0.1-0.1-0.2l-0.2-0.2c-0.2-0.2-0.5-0.4-0.6-0.7c-0.6-0.5-1.2-1-1.7-1.5
		l-1.6-1.5l3.7-4c-0.1,0.1-0.2,0-0.1-0.1c0,0,0.1-0.2,0.2-0.2c0.1,0.1,0.2,0.2,0.3,0.3c0.5,0.4,1.1,0.7,1.8,0.9
		c1,0.4,2.1,0.5,3.2,0.2c0.1,0,0.7-0.3,0.5-0.3c-0.6,0.2-1.1,0.3-1.7,0.3c0.9-0.1,1.8-0.3,2.6-0.7c-0.2,0.1-0.3,0.2-0.5,0.3
		c1-0.4,1.8-0.9,2.5-1.7c0.7-0.7,1.1-1.6,1.2-2.6c-0.1,0.5-0.3,0.9-0.6,1.3c0.4-1,0.6-2.2,0.5-3.3c-0.1-1-0.5-1.9-1.1-2.7
		c0.4,0.7,0.8,1.4,1,2.2c0.2,0.7,0.1,1.3,0,1.3c-0.1-0.8-0.3-1.6-0.5-2.3c-0.3-0.8-0.8-1.5-1.5-2.1l-0.1-0.1l0.1-0.1l0.1-0.1
		l0.2-0.3l0.4-0.5l0.7-0.8C38.5,9.1,39,8.5,39.5,8l0.7-0.8l0.4-0.4l0,0l0,0l0,0l0,0c0.9,0,0.3,0,0.5,0l0,0l0,0.1L41.2,7L41.4,7.2"/>
	<path id="Tracé_1478" style="clip-path:url(#SVGID_00000068649275090123727400000015955126629154896304_);fill:#5A4C4A;" d="
		M37.6,9.6l-0.6,0.7c-0.2,0.2-0.4,0.4-0.6,0.7l-0.4,0.5c0,0.1,0.2,0.2,0.3,0.3c0.3,0.2,0.5,0.4,0.7,0.6c0.3,0.3,0.6,0.7,0.7,1.1
		c-0.2-0.2,0.2,0.9,0.3,1.7c0.2,0.8,0.1,1.6-0.2,2.4c-0.2,0.4-0.2,0.3,0-0.5c0.3-1.2,0.2-2.4-0.4-3.5c-0.1-0.3-0.3-0.5-0.5-0.8
		l-0.1-0.2c-0.1-0.1-0.2-0.2-0.3-0.3L36,11.5l-0.1-0.1l0.1-0.1l0.2-0.2l0.3-0.3c0.2-0.2,0.4-0.4,0.6-0.6
		C37.2,10.1,37.4,9.8,37.6,9.6"/>
	<path id="Tracé_1479" style="clip-path:url(#SVGID_00000068649275090123727400000015955126629154896304_);fill:#FFFFFF;" d="
		M39.8,8.3c-0.9,1.1-0.8,0.5-1.6,1.5c0.3-0.5,0.5-0.6,1.4-1.5L39,8.9L39.8,8.3z"/>
	<path id="Tracé_1480" style="clip-path:url(#SVGID_00000068649275090123727400000015955126629154896304_);fill:#5A4C4A;" d="
		M38.1,17.8c-0.2,0.5-0.5,1-0.9,1.5c-0.4,0.5-0.8,0.7-0.9,0.7c-0.1,0.1,0-0.1-0.3,0.2c0.5-0.3,0.9-0.7,1.2-1.2
		C37.7,18.5,38,17.9,38.1,17.8"/>
	<path id="Tracé_1481" style="clip-path:url(#SVGID_00000068649275090123727400000015955126629154896304_);fill:#FFFFFF;" d="
		M38.8,14c0.2,0.6,0.3,1.2,0.3,1.8C39.1,15.2,39,14.6,38.8,14"/>
	<path id="Tracé_1482" style="clip-path:url(#SVGID_00000068649275090123727400000015955126629154896304_);fill:#5A4C4A;" d="
		M37.9,19c0.2-0.1-0.4,0.6-0.6,0.8c-0.1,0.1-0.3,0.2-0.4,0.3C37.3,19.8,37.7,19.3,37.9,19"/>
	<path id="Tracé_1483" style="clip-path:url(#SVGID_00000068649275090123727400000015955126629154896304_);fill:#5A4C4A;" d="
		M31.5,21.3c-1.1-0.4,1.2,0.2-0.1-0.2c0.3,0.1,0.5,0.1,0.8,0.2l0.3,0.2C32.1,21.4,31.8,21.3,31.5,21.3"/>
	<path id="Tracé_1484" style="clip-path:url(#SVGID_00000068649275090123727400000015955126629154896304_);fill:#5A4C4A;" d="
		M29.9,20.4c-0.1-0.1-0.2-0.1-0.3-0.2l-0.4-0.3l-0.2-0.2c-0.1,0-0.2-0.2-0.2-0.1c-0.1,0.1-0.3,0.3-0.5,0.5l0.4-0.5l0.1-0.1
		c0-0.1,0.1-0.1,0.1,0l0.3,0.3C29.4,20,29.6,20.2,29.9,20.4"/>
	<path id="Tracé_1485" style="clip-path:url(#SVGID_00000068649275090123727400000015955126629154896304_);fill:#5A4C4A;" d="
		M31.1,21.4c-0.6-0.2-0.5-0.2-0.8-0.4C30.5,21.1,31.7,21.6,31.1,21.4"/>
	<path id="Tracé_1486" style="clip-path:url(#SVGID_00000068649275090123727400000015955126629154896304_);fill:#5A4C4A;" d="
		M27.1,23.6c0.2-0.4,0.5-0.7,0.8-1l0.5-0.6l0.3-0.3c0.1-0.1,0.2-0.3,0.2-0.3l-0.8,1C27.8,22.8,27.5,23.2,27.1,23.6"/>
	<path id="Tracé_1487" style="clip-path:url(#SVGID_00000068649275090123727400000015955126629154896304_);fill:#5A4C4A;" d="
		M49.4,27.9c-0.1,0.5-0.2,1.2-0.2,1.6l0.1-0.3C49.3,28.7,49.4,28.3,49.4,27.9"/>
	<path id="Tracé_1488" style="clip-path:url(#SVGID_00000068649275090123727400000015955126629154896304_);fill:#5A4C4A;" d="
		M49.2,20c-0.3-0.5,0,0.4,0.1,1.5c0,0.7,0.2,1.5,0.2,2.2c0,0.7,0.1,1.5,0.1,2.2l0,0.9c0.1-1.1,0.2-2.2,0.1-3.3
		C49.6,22.3,49.4,21.1,49.2,20"/>
	<path id="Tracé_1489" style="clip-path:url(#SVGID_00000068649275090123727400000015955126629154896304_);fill:#FFFFFF;" d="
		M48.1,19.1c0.1,1,0.5,2.3,0.6,3.1c0-0.7-0.1-1.4-0.3-2.1c-0.1-0.6-0.2-1.2-0.4-1.7C47.9,18.3,48.1,18.8,48.1,19.1"/>
	<path id="Tracé_1490" style="clip-path:url(#SVGID_00000068649275090123727400000015955126629154896304_);fill:#5A4C4A;" d="
		M43.9,40.7c1.4-1.6,2.6-3.5,3.4-5.5c-0.5,0.8-0.5,0.8-1.2,2.1c0.3-1.1,1.1-1.9,1.6-3.2c-0.4,1,0-0.4,0.3-1.2
		c0.8-2.1,1.2-4.4,1.3-6.6c0-0.5,0-1.6,0-2.5c-0.1-0.9-0.2-1.6-0.2-1.3c-0.1-1.4-0.1-1.6-0.2-2.7c-0.3-1-0.4-1.5-0.6-2.2
		c-0.2-0.7-0.4-1.4-0.6-2.1c-0.2-0.7-0.5-1.4-0.8-2.1c-0.3-0.7-0.8-1.4-1.3-2.1c0.2,0.1-0.7-1.3-1.2-1.8c-0.8-1.2-3.4-3.6-3-2.9
		c0.4,0.5,0.9,1,1.4,1.5c0.6,0.6,1.1,1.2,1.5,1.9c1.4,2.2-1.7-2.1-2-1.9c0.3,0.2,0.3,0.5,1.1,1.3c-1.6-1.8,0.4,0.9-0.4,0.1
		c0.4,0.5,0.7,0.9,0.9,1.2c0.2,0.3,0.3,0.6,0.4,0.8c0.2,0.4,0.3,0.7,0.6,1.3c0.8,1.4,0.8,0.9,1.1,1.3c0.7,1.4,1.2,2.8,1.6,4.3
		c-0.3-0.5-0.2,0.1,0,1.1c0.2,1,0.4,2.1,0.5,3.1c0,0.5,0.1,1,0.2,1.5c0.2,0.5,0.2,1.1,0.1,1.6c-0.2,1.2-0.2-2.4-0.4-0.9l0.1,1.1
		c0.1,0.7,0.2,1.3,0.2,2.1c0,0.4-0.1,0.8-0.3,1.2c0.1-1-0.1-0.7-0.3,0.3c0,0.5,0,0.6,0,0.8c0.8-1.9-0.4,2.1-0.9,3.4
		c-0.2,0.7-0.5,1.4-0.9,2c-0.2,0.3-0.4,0.6-0.6,0.8c-0.7,0.7-1.4,1.6-1.9,2.5c0.5-0.4,0.1,0.2-0.5,1l-0.2,0.3l-0.1,0.2l-0.1,0.1l0,0
		l0,0l0,0c-0.3,0,0.5,0,0.4,0l0,0l0,0l0,0c-0.2-0.2-0.4-0.4-0.6-0.6c-0.4-0.4-0.8-0.7-1.1-0.9c-0.6-0.5-1.1-1.1-1.6-1.7
		c-0.3-0.2-0.9-0.8-1.1-0.8c0.3,0.7,0.8,1.4,1.3,2c0.4,0.5,0.8,1,1.3,1.6l0.8,0.9l0.2,0.2l0.1,0.1l0,0c2.3-0.1,0.6,0,1.2-0.1l0,0
		l0,0l0,0l0,0l0.1-0.1l0.5-0.5C43.8,40.8,43.9,40.7,43.9,40.7"/>
	<path id="Tracé_1491" style="clip-path:url(#SVGID_00000068649275090123727400000015955126629154896304_);fill:#F8831A;" d="
		M12.8,38.1c-2.5-2.2-2.6-6-0.4-8.5s6-2.6,8.5-0.4l0,0l4-4.4l4.5,4c-2.2,2.5-2,6.3,0.5,8.5c2.5,2.2,6.2,2,8.4-0.4l4.4,4
		c-8.9,9.8-24,10.6-33.8,1.7L12.8,38.1z"/>
	<path id="Tracé_1492" style="clip-path:url(#SVGID_00000068649275090123727400000015955126629154896304_);fill:#F8831A;" d="
		M31.2,48.6c0.7-0.2,2-0.6,1.8-0.4h0.2C32.6,48.3,29.9,49.1,31.2,48.6"/>
	<path id="Tracé_1493" style="clip-path:url(#SVGID_00000068649275090123727400000015955126629154896304_);fill:#FFFFFF;" d="
		M30.9,48.2C31.6,48,31.1,48.2,30.9,48.2c-0.2,0.2-0.5,0.2-0.8,0.3C29.8,48.4,30.6,48.3,30.9,48.2"/>
	<path id="Tracé_1494" style="clip-path:url(#SVGID_00000068649275090123727400000015955126629154896304_);fill:#F8831A;" d="
		M31,47.1l-0.3,0c0.3,0,0.6-0.1,0.9-0.2c-0.3,0.2-0.6,0.3-0.9,0.4C30.8,47.2,31.3,47.1,31,47.1"/>
	<path id="Tracé_1495" style="clip-path:url(#SVGID_00000068649275090123727400000015955126629154896304_);fill:#F8831A;" d="
		M42.5,41.4c0-0.2-0.8,0.2-1.6,0.8l0.1-0.5c0.4-0.3,0.8-0.7,1.2-1.1l0.1-0.1l0,0c0.1,1.3,0,0.4,0,0.6l0,0l0,0l0,0l0,0l0,0L42,40.9
		l-0.4-0.3l-0.8-0.7c-0.4-0.3,0.8,0.9-0.2,0.1c-0.1-0.1,0-0.1-0.1-0.3c-0.3-0.2-0.5-0.4-0.8-0.5c-0.2-0.1-0.4-0.2-0.5-0.4l-0.4-0.4
		c-0.1-0.1-0.3-0.3-0.5-0.5c0-0.1-0.1-0.2-0.1-0.3c-0.1,0.1-0.2,0.2-0.3,0.2c-0.2,0.2-0.5,0.4-0.7,0.5c-0.5,0.3-1,0.6-1.6,0.7
		c-1.1,0.4-2.3,0.4-3.5,0.1c-2.3-0.5-4.1-2.3-4.8-4.6c-0.3-0.6-0.4-1.3-0.4-2c0-0.8,0.2-1.7,0.4-2.5h0.1c0.1-0.5,0.4-0.9,0.7-1.3
		c0,0,0.1,0,0.1-0.1c0,0,0-0.1-0.1-0.1c-0.1-0.1-0.3-0.4-0.5-0.5c0-0.1,0.1,0,0.2,0.1c0.1,0.1,0.4,0.4,0.5,0.4l0.2,0.2
		c0,0,0,0.1,0.1,0c-0.4-0.4-0.9-0.9-1.4-1.2c-0.6-0.4-1.1-0.9-1.5-1.4c-0.2-0.2-0.4-0.3-0.5-0.5c-0.1-0.1-0.1-0.1-0.2-0.2
		c-0.1,0-0.1-0.1-0.2-0.1l-0.1,0.2c0,0.1,0.1,0,0.1,0.2L24.8,26l-0.3,0.3l-0.6,0.6c-0.4,0.4-0.7,0.6-1,0.9s-0.6,0.5-0.9,0.8
		c-0.2,0.2-0.3,0.3-0.6,0.6L21,29.7c0,0-0.1,0.1-0.1,0.1l-0.1-0.1l-0.3-0.2c0,0-0.2-0.1-0.5-0.3c-0.2-0.1-0.3-0.2-0.5-0.2
		c-0.1,0-0.2,0-0.2,0c0.1,0.1,0.1,0.1,0.2,0.1l0.5,0.4l0.7,0.5l0.2,0.1c0.1,0.1,0.1-0.1,0.1-0.1l0.3-0.3l0.4-0.4l0.2-0.2l0.1-0.1
		l-0.7,0.8l-0.4,0.5c-0.2-0.1-0.3-0.2-0.5-0.4L20,29.6c-0.1-0.1-0.2-0.1-0.3-0.2c-0.1,0-0.1-0.1-0.1,0c-0.6-0.5-1.4-0.8-2.2-0.8
		c-0.8,0-1.3,0.1-0.3-0.2c0.7,0.1,1.5,0.3,2.2,0.5c-2.2-1.2-5-0.7-6.6,1.2c-0.1,0.2-0.2,0.4-0.3,0.6c-0.6,0.5-1,1.2-1.1,1.9
		c-0.1,0.5-0.1,1.1,0,0.9c0.1-0.5,0.2-1.1,0.4-1.6c0.3-0.7,0.6-1.1,0.3-0.3c-0.5,1.1-0.6,2.4-0.3,3.5c0.2,1,0.7,1.9,1.4,2.7
		c-0.8-0.8-1.5-1.7-1.9-2.8c-0.6-2.3,0.2-4.7,2-6.1c1.9-1.4,4.4-1.7,6.5-0.7c0.1,0.1,1,0.8,0.7,0.7c0.1,0.1,0.2,0.2,0.4,0.3
		c0.1,0.1,0.1,0,0.2-0.1l0.2-0.2c0.2-0.2,0.4-0.5,0.7-0.6c0.5-0.6,1-1.2,1.5-1.7l1.5-1.6l4,3.7c-0.1-0.1,0-0.2,0.1-0.1
		c0,0,0.2,0.1,0.2,0.2c-0.1,0.1-0.2,0.2-0.3,0.3c-0.4,0.5-0.7,1.1-0.9,1.8c-0.4,1-0.5,2.1-0.2,3.2c0,0.1,0.3,0.7,0.3,0.5
		c-0.2-0.6-0.3-1.1-0.3-1.7c0.1,0.9,0.3,1.8,0.7,2.6c-0.1-0.2-0.2-0.3-0.3-0.5c0.4,1,0.9,1.8,1.7,2.5c0.7,0.7,1.6,1.1,2.6,1.2
		c-0.5-0.1-0.9-0.3-1.3-0.6c1,0.4,2.2,0.6,3.3,0.5c1-0.1,1.9-0.5,2.7-1.1c-0.7,0.4-1.4,0.8-2.2,1c-0.7,0.2-1.3,0.1-1.3,0
		c0.8-0.1,1.6-0.3,2.3-0.5c0.8-0.3,1.5-0.8,2.1-1.5l0.1-0.1l0.1,0.1l0.1,0.1l0.3,0.2l0.5,0.4L40,38c0.6,0.5,1.1,0.9,1.6,1.4l0.8,0.7
		l0.4,0.4l0,0l0,0l0,0l0,0c0,0.9,0,0.3,0,0.5l0,0l-0.1,0l-0.1,0.1L42.5,41.4"/>
	<path id="Tracé_1496" style="clip-path:url(#SVGID_00000068649275090123727400000015955126629154896304_);fill:#F8831A;" d="
		M40,37.6L39.3,37c-0.2-0.2-0.5-0.4-0.7-0.6l-0.5-0.4c-0.1,0-0.2,0.2-0.3,0.3c-0.2,0.3-0.4,0.5-0.6,0.7c-0.3,0.3-0.7,0.6-1.1,0.7
		c0.2-0.2-0.9,0.2-1.7,0.3c-0.8,0.2-1.6,0.1-2.4-0.2c-0.4-0.2-0.3-0.2,0.5,0c1.2,0.3,2.4,0.2,3.5-0.4c0.3-0.1,0.5-0.3,0.8-0.5
		l0.2-0.1c0.1-0.1,0.2-0.2,0.3-0.3l0.7-0.6l0.1-0.1l0.1,0.1l0.2,0.2l0.3,0.3l0.6,0.6C39.6,37.2,39.8,37.4,40,37.6"/>
	<path id="Tracé_1497" style="clip-path:url(#SVGID_00000068649275090123727400000015955126629154896304_);fill:#FFFFFF;" d="
		M41.4,39.7c-1.1-0.9-0.5-0.8-1.5-1.6c0.5,0.3,0.6,0.5,1.5,1.4L40.7,39L41.4,39.7z"/>
	<path id="Tracé_1498" style="clip-path:url(#SVGID_00000068649275090123727400000015955126629154896304_);fill:#F8831A;" d="
		M31.8,38.1c-0.5-0.2-1-0.5-1.5-0.9c-0.5-0.4-0.7-0.8-0.7-0.9c-0.1-0.1,0.1,0-0.2-0.3c0.3,0.5,0.7,0.9,1.2,1.2
		C31.1,37.7,31.7,38,31.8,38.1"/>
	<path id="Tracé_1499" style="clip-path:url(#SVGID_00000068649275090123727400000015955126629154896304_);fill:#FFFFFF;" d="
		M35.6,38.8c-0.6,0.2-1.2,0.3-1.8,0.3C34.4,39,35,38.9,35.6,38.8"/>
	<path id="Tracé_1500" style="clip-path:url(#SVGID_00000068649275090123727400000015955126629154896304_);fill:#F8831A;" d="
		M30.7,37.9c0.1,0.2-0.6-0.4-0.8-0.6c-0.1-0.1-0.2-0.3-0.3-0.4C29.9,37.3,30.4,37.6,30.7,37.9"/>
	<path id="Tracé_1501" style="clip-path:url(#SVGID_00000068649275090123727400000015955126629154896304_);fill:#F8831A;" d="
		M28.4,31.4c0.4-1.1-0.2,1.2,0.2-0.1c-0.1,0.3-0.1,0.5-0.2,0.8l-0.2,0.3C28.2,32.1,28.3,31.7,28.4,31.4"/>
	<path id="Tracé_1502" style="clip-path:url(#SVGID_00000068649275090123727400000015955126629154896304_);fill:#F8831A;" d="
		M29.2,29.9c0.1-0.1,0.1-0.2,0.2-0.3c0.1-0.1,0.2-0.3,0.3-0.4c0.1-0.1,0.1-0.1,0.2-0.2c0-0.1,0.2-0.2,0.1-0.2
		c-0.1-0.1-0.3-0.3-0.5-0.5l0.5,0.4l0.1,0.1c0.1,0,0.1,0.1,0,0.1l-0.3,0.3C29.6,29.3,29.4,29.6,29.2,29.9"/>
	<path id="Tracé_1503" style="clip-path:url(#SVGID_00000068649275090123727400000015955126629154896304_);fill:#F8831A;" d="
		M28.2,31.1c0.2-0.6,0.2-0.5,0.4-0.8C28.5,30.5,28,31.7,28.2,31.1"/>
	<path id="Tracé_1504" style="clip-path:url(#SVGID_00000068649275090123727400000015955126629154896304_);fill:#F8831A;" d="
		M26,27.1c0.4,0.2,0.7,0.5,1,0.8l0.6,0.5l0.3,0.3c0.1,0.1,0.3,0.2,0.3,0.2l-1-0.8C26.8,27.8,26.5,27.5,26,27.1"/>
	<path id="Tracé_1505" style="clip-path:url(#SVGID_00000068649275090123727400000015955126629154896304_);fill:#F8831A;" d="
		M21.7,49.3c-0.5-0.1-1.2-0.2-1.6-0.2l0.3,0.1C20.9,49.3,21.3,49.3,21.7,49.3"/>
	<path id="Tracé_1506" style="clip-path:url(#SVGID_00000068649275090123727400000015955126629154896304_);fill:#F8831A;" d="
		M29.7,49.1c0.5-0.3-0.4,0-1.5,0.1c-0.7,0-1.5,0.2-2.2,0.2c-0.7,0-1.5,0.1-2.2,0.1l-0.9,0c1.1,0.1,2.2,0.2,3.3,0.1
		C27.3,49.6,28.5,49.4,29.7,49.1"/>
	<path id="Tracé_1507" style="clip-path:url(#SVGID_00000068649275090123727400000015955126629154896304_);fill:#FFFFFF;" d="
		M30.6,48.1c-1,0.1-2.3,0.5-3.1,0.6c0.7,0,1.4-0.1,2.1-0.3c0.6-0.1,1.2-0.2,1.7-0.4C31.3,47.9,30.8,48,30.6,48.1"/>
	<path id="Tracé_1508" style="clip-path:url(#SVGID_00000068649275090123727400000015955126629154896304_);fill:#F8831A;" d="
		M9,43.9c1.6,1.4,3.5,2.6,5.5,3.4c-0.8-0.5-0.8-0.5-2.1-1.2c1.1,0.3,1.9,1.1,3.2,1.6c-1-0.4,0.4,0,1.2,0.3c2.1,0.8,4.4,1.2,6.6,1.3
		c0.5,0,1.6,0,2.5,0c0.9-0.1,1.6-0.2,1.3-0.2c1.4-0.1,1.6-0.1,2.7-0.2l2.2-0.6c0.7-0.2,1.4-0.4,2.1-0.6c0.7-0.2,1.4-0.5,2.1-0.8
		c0.7-0.3,1.4-0.8,2.1-1.3c-0.1,0.2,1.3-0.7,1.8-1.2c1.2-0.8,3.6-3.4,2.9-3c-0.5,0.4-1,0.9-1.5,1.4c-0.6,0.6-1.2,1.1-1.9,1.5
		c-2.2,1.4,2.1-1.7,1.9-2c-0.2,0.3-0.5,0.3-1.3,1.1c1.8-1.6-0.9,0.4-0.1-0.4l-1.2,0.9c-0.3,0.2-0.6,0.3-0.8,0.4
		c-0.4,0.2-0.7,0.3-1.3,0.6c-1.4,0.8-0.9,0.8-1.3,1.1c-1.4,0.7-2.8,1.2-4.3,1.6c0.5-0.3-0.1-0.2-1.1,0c-1,0.2-2.1,0.4-3.1,0.5
		c-0.5,0-1,0.1-1.5,0.2c-0.5,0.2-1.1,0.2-1.6,0.1c-1.2-0.2,2.4-0.2,0.9-0.4l-1.1,0.1c-0.7,0.1-1.3,0.2-2.1,0.2
		c-0.4,0-0.8-0.1-1.2-0.3c1,0.1,0.7-0.1-0.3-0.3c-0.5,0-0.6,0-0.8,0c1.9,0.8-2.1-0.4-3.4-0.9c-0.7-0.2-1.4-0.5-2-0.9
		c-0.3-0.2-0.6-0.4-0.8-0.6c-0.7-0.7-1.6-1.4-2.5-1.9c0.4,0.5-0.2,0.1-0.9-0.5l-0.3-0.2l-0.2-0.1L9,42.4l0,0l0,0l0,0
		c0-0.3,0,0.5,0,0.4l0,0l0,0l0,0c0.2-0.2,0.4-0.4,0.6-0.6c0.4-0.4,0.7-0.8,0.9-1.1c0.5-0.6,1.1-1.1,1.7-1.6c0.2-0.3,0.8-0.9,0.8-1.1
		c-0.7,0.3-1.4,0.8-2,1.3c-0.5,0.4-1,0.8-1.6,1.3l-0.9,0.8l-0.2,0.2L8.2,42l0,0c0.1,2.3,0,0.6,0.1,1.2l0,0l0,0l0,0l0,0l0.1,0.1
		l0.5,0.5C8.9,43.8,8.9,43.8,9,43.9"/>
	<path id="Tracé_1509" style="clip-path:url(#SVGID_00000068649275090123727400000015955126629154896304_);fill:#349FB8;" d="
		M11.5,12.8c2.2-2.5,6-2.6,8.5-0.4s2.6,6,0.4,8.5l4.4,4l-4,4.5c-2.5-2.2-6.2-2-8.5,0.4s-2,6.2,0.4,8.5l0,0l-4,4.4
		C-1,33.7-1.8,18.6,7.1,8.7c0,0,0,0,0,0L11.5,12.8z"/>
	<path id="Tracé_1510" style="clip-path:url(#SVGID_00000068649275090123727400000015955126629154896304_);fill:#349FB8;" d="
		M1.1,31.2c0.2,0.7,0.6,2,0.4,1.8v0.2C1.3,32.6,0.5,29.9,1.1,31.2"/>
	<path id="Tracé_1511" style="clip-path:url(#SVGID_00000068649275090123727400000015955126629154896304_);fill:#FFFFFF;" d="
		M1.5,30.9C1.6,31.5,1.5,31,1.5,30.9c-0.2-0.2-0.2-0.5-0.3-0.8C1.2,29.8,1.3,30.5,1.5,30.9"/>
	<path id="Tracé_1512" style="clip-path:url(#SVGID_00000068649275090123727400000015955126629154896304_);fill:#349FB8;" d="
		M2.5,31l0-0.3c0,0.3,0.1,0.6,0.2,0.9c-0.2-0.3-0.3-0.6-0.4-0.9C2.4,30.8,2.6,31.2,2.5,31"/>
	<path id="Tracé_1513" style="clip-path:url(#SVGID_00000068649275090123727400000015955126629154896304_);fill:#349FB8;" d="
		M8.2,42.4c0.2,0-0.2-0.8-0.8-1.6l0.5,0.1c0.3,0.4,0.7,0.8,1.1,1.2l0.1,0.1l0,0c-1.3,0.1-0.4,0-0.6,0l0,0l0,0l0,0l0,0l0,0L8.7,42
		L9,41.6l0.7-0.8c0.3-0.4-0.9,0.8-0.1-0.2c0.1-0.1,0.1,0,0.3-0.1c0.2-0.3,0.4-0.5,0.5-0.8c0.1-0.2,0.2-0.4,0.4-0.5l0.4-0.4
		c0.1-0.1,0.3-0.3,0.5-0.5c0.1,0,0.2-0.1,0.3-0.1c-0.1-0.1-0.2-0.2-0.2-0.3c-0.2-0.2-0.4-0.5-0.5-0.7c-0.3-0.5-0.6-1-0.7-1.6
		c-0.4-1.1-0.4-2.3-0.1-3.5c0.5-2.3,2.3-4.1,4.6-4.8c0.6-0.3,1.3-0.4,2-0.4c0.8,0,1.7,0.1,2.5,0.4v0.1c0.5,0.1,0.9,0.4,1.3,0.7
		c0,0,0,0.1,0.1,0.1c0,0,0.1,0,0.1-0.1c0.1-0.1,0.4-0.3,0.5-0.5c0.1,0,0,0.1-0.1,0.2c-0.1,0.1-0.4,0.4-0.4,0.5
		c-0.1,0.1-0.1,0.1-0.2,0.2c0,0-0.1,0,0,0.1c0.4-0.4,0.9-0.9,1.2-1.4c0.4-0.6,0.9-1.1,1.4-1.5c0.2-0.2,0.3-0.4,0.5-0.5
		c0.1-0.1,0.1-0.1,0.2-0.2c0-0.1,0.1-0.1,0.1-0.2l-0.2-0.1c-0.1,0,0,0.1-0.2,0.1l-0.1-0.1l-0.3-0.3l-0.6-0.6c-0.4-0.4-0.6-0.7-0.9-1
		s-0.5-0.6-0.8-0.9c-0.2-0.2-0.3-0.3-0.6-0.6L20,20.9c0,0-0.1-0.1-0.1-0.1l0.1-0.1l0.2-0.3c0,0,0.1-0.2,0.3-0.5
		c0.1-0.2,0.2-0.3,0.2-0.5c0-0.1,0-0.2,0-0.2c-0.1,0.1-0.1,0.1-0.1,0.2L20.1,20l-0.5,0.7l-0.1,0.2c-0.1,0.1,0.1,0.1,0.1,0.1l0.3,0.3
		l0.4,0.4l0.2,0.2l0.1,0.1l-0.8-0.7l-0.5-0.4c0.1-0.2,0.2-0.3,0.4-0.5s0.2-0.3,0.3-0.4c0.1-0.1,0.1-0.2,0.2-0.3c0-0.1,0.1-0.1,0-0.1
		c0.5-0.6,0.8-1.4,0.8-2.2c0-0.8-0.1-1.3,0.2-0.3c-0.1,0.7-0.3,1.5-0.5,2.2c1.2-2.2,0.7-5-1.2-6.6c-0.2-0.1-0.4-0.2-0.6-0.3
		c-0.5-0.6-1.2-1-1.9-1.1c-0.5-0.1-1.1-0.1-0.9,0c0.5,0.1,1.1,0.2,1.6,0.4c0.7,0.3,1.1,0.6,0.3,0.3c-1.1-0.5-2.4-0.6-3.5-0.3
		c-1,0.2-1.9,0.7-2.7,1.4c0.8-0.8,1.7-1.5,2.8-1.9c2.3-0.6,4.7,0.2,6.1,2c1.4,1.9,1.7,4.4,0.7,6.5c-0.1,0.1-0.8,1-0.7,0.7
		c-0.1,0.1-0.2,0.2-0.3,0.4c-0.1,0.1,0,0.1,0.1,0.2l0.2,0.2c0.2,0.2,0.5,0.4,0.6,0.7c0.6,0.5,1.2,1,1.7,1.5l1.6,1.5l-3.7,4
		c0.1-0.1,0.2,0,0.1,0.1c0,0-0.1,0.2-0.2,0.2c-0.1-0.1-0.2-0.2-0.3-0.3c-0.5-0.4-1.1-0.7-1.8-0.9c-1-0.4-2.1-0.5-3.2-0.2
		c-0.1,0-0.7,0.3-0.5,0.3c0.6-0.2,1.1-0.3,1.7-0.3c-0.9,0.1-1.8,0.3-2.6,0.7c0.2-0.1,0.3-0.2,0.5-0.3c-1,0.4-1.8,0.9-2.5,1.7
		c-0.7,0.7-1.1,1.6-1.2,2.6c0.1-0.5,0.3-0.9,0.6-1.3c-0.5,1-0.6,2.2-0.5,3.3c0.1,1,0.5,1.9,1.1,2.7c-0.4-0.7-0.8-1.4-1-2.2
		c-0.2-0.7-0.1-1.3,0-1.3c0.1,0.8,0.3,1.6,0.5,2.3c0.3,0.8,0.8,1.5,1.5,2.1l0.1,0.1l-0.1,0.1L13,38.4l-0.2,0.3l-0.4,0.5L11.6,40
		c-0.5,0.6-0.9,1.1-1.4,1.6l-0.7,0.8l-0.4,0.4l0,0l0,0l0,0l0,0c-0.9,0-0.3,0-0.5,0l0,0l-0.1,0l-0.1-0.1L8.2,42.4"/>
	<path id="Tracé_1514" style="clip-path:url(#SVGID_00000068649275090123727400000015955126629154896304_);fill:#349FB8;" d="
		M12,40l0.6-0.7c0.2-0.2,0.4-0.5,0.6-0.7l0.4-0.5c0-0.1-0.2-0.2-0.3-0.3c-0.3-0.2-0.5-0.4-0.7-0.6c-0.3-0.3-0.6-0.7-0.7-1.1
		c0.2,0.2-0.2-0.9-0.3-1.7c-0.2-0.8-0.1-1.6,0.2-2.4c0.2-0.4,0.2-0.3,0,0.5c-0.3,1.2-0.2,2.4,0.4,3.5c0.1,0.3,0.3,0.5,0.5,0.8
		l0.1,0.2c0.1,0.1,0.2,0.2,0.3,0.3l0.6,0.7l0.1,0.1l-0.1,0.1l-0.2,0.2l-0.3,0.3c-0.2,0.2-0.4,0.4-0.6,0.6C12.5,39.5,12.3,39.8,12,40
		"/>
	<path id="Tracé_1515" style="clip-path:url(#SVGID_00000068649275090123727400000015955126629154896304_);fill:#FFFFFF;" d="
		M9.9,41.3c0.9-1.1,0.8-0.5,1.6-1.5c-0.3,0.5-0.5,0.6-1.4,1.5l0.4-0.6L9.9,41.3z"/>
	<path id="Tracé_1516" style="clip-path:url(#SVGID_00000068649275090123727400000015955126629154896304_);fill:#349FB8;" d="
		M11.5,31.8c0.2-0.5,0.5-1,0.9-1.5c0.4-0.5,0.8-0.7,0.9-0.7c0.1-0.1,0,0.1,0.3-0.2c-0.5,0.3-0.9,0.7-1.2,1.2
		C11.9,31.1,11.7,31.7,11.5,31.8"/>
	<path id="Tracé_1517" style="clip-path:url(#SVGID_00000068649275090123727400000015955126629154896304_);fill:#FFFFFF;" d="
		M10.9,35.6c-0.2-0.6-0.3-1.2-0.3-1.8C10.6,34.4,10.7,35,10.9,35.6"/>
	<path id="Tracé_1518" style="clip-path:url(#SVGID_00000068649275090123727400000015955126629154896304_);fill:#349FB8;" d="
		M11.8,30.6c-0.2,0.1,0.4-0.6,0.6-0.8c0.1-0.1,0.3-0.2,0.4-0.3C12.4,29.8,12,30.3,11.8,30.6"/>
	<path id="Tracé_1519" style="clip-path:url(#SVGID_00000068649275090123727400000015955126629154896304_);fill:#349FB8;" d="
		M18.2,28.3c1.1,0.4-1.2-0.2,0.1,0.2c-0.3-0.1-0.5-0.1-0.8-0.2l-0.3-0.2C17.6,28.2,17.9,28.3,18.2,28.3"/>
	<path id="Tracé_1520" style="clip-path:url(#SVGID_00000068649275090123727400000015955126629154896304_);fill:#349FB8;" d="
		M19.8,29.2c0.1,0.1,0.2,0.1,0.3,0.2l0.4,0.3l0.2,0.2c0.1,0,0.2,0.2,0.2,0.1c0.1-0.1,0.3-0.3,0.5-0.5l-0.4,0.5L21,30.1
		c0,0.1-0.1,0.1-0.1,0l-0.3-0.3C20.3,29.6,20,29.4,19.8,29.2"/>
	<path id="Tracé_1521" style="clip-path:url(#SVGID_00000068649275090123727400000015955126629154896304_);fill:#349FB8;" d="
		M18.5,28.2c0.6,0.2,0.5,0.2,0.8,0.4C19.1,28.5,18,28,18.5,28.2"/>
	<path id="Tracé_1522" style="clip-path:url(#SVGID_00000068649275090123727400000015955126629154896304_);fill:#349FB8;" d="
		M22.6,26c-0.2,0.4-0.5,0.7-0.8,1l-0.5,0.6L21,27.9c-0.1,0.1-0.2,0.3-0.2,0.3l0.8-1C21.8,26.8,22.1,26.4,22.6,26"/>
	<path id="Tracé_1523" style="clip-path:url(#SVGID_00000068649275090123727400000015955126629154896304_);fill:#349FB8;" d="
		M0.3,21.7c0.1-0.5,0.2-1.2,0.2-1.6l-0.1,0.3C0.4,20.9,0.3,21.3,0.3,21.7"/>
	<path id="Tracé_1524" style="clip-path:url(#SVGID_00000068649275090123727400000015955126629154896304_);fill:#349FB8;" d="
		M0.5,29.6c0.3,0.5,0-0.4-0.1-1.5c0-0.7-0.2-1.5-0.2-2.2c0-0.7-0.1-1.5-0.1-2.2l0-0.9C0,23.9,0,25,0,26.1
		C0.1,27.3,0.3,28.5,0.5,29.6"/>
	<path id="Tracé_1525" style="clip-path:url(#SVGID_00000068649275090123727400000015955126629154896304_);fill:#FFFFFF;" d="
		M1.6,30.5C1.4,29.5,1,28.2,1,27.4c0,0.7,0.1,1.4,0.3,2.1c0.1,0.6,0.2,1.2,0.4,1.7C1.7,31.3,1.6,30.8,1.6,30.5"/>
	<path id="Tracé_1526" style="clip-path:url(#SVGID_00000068649275090123727400000015955126629154896304_);fill:#349FB8;" d="
		M5.8,8.9c-1.4,1.6-2.6,3.5-3.4,5.5c0.5-0.8,0.5-0.8,1.2-2.1c-0.3,1.1-1.1,1.9-1.6,3.2c0.4-1,0,0.4-0.3,1.2
		c-0.8,2.1-1.2,4.4-1.3,6.6c0,0.5,0,1.6,0,2.5c0.1,0.9,0.2,1.6,0.2,1.3c0.1,1.4,0.1,1.6,0.2,2.7c0.3,1,0.4,1.5,0.6,2.2
		c0.2,0.7,0.4,1.4,0.6,2.1c0.2,0.7,0.5,1.4,0.8,2.1c0.3,0.7,0.8,1.4,1.3,2.1c-0.2-0.1,0.7,1.3,1.2,1.8c0.8,1.2,3.4,3.6,3,2.9
		c-0.4-0.5-0.9-1-1.4-1.5c-0.6-0.6-1.1-1.2-1.5-1.9c-1.4-2.2,1.7,2.1,2,1.9C7,41.3,7,41,6.3,40.2c1.6,1.8-0.4-0.9,0.4-0.1
		c-0.4-0.5-0.7-0.9-0.9-1.2c-0.2-0.3-0.3-0.6-0.4-0.8c-0.2-0.4-0.3-0.7-0.6-1.3c-0.8-1.4-0.8-0.9-1.1-1.3c-0.7-1.4-1.2-2.8-1.6-4.3
		c0.3,0.5,0.2-0.1,0-1.1c-0.2-1-0.4-2.1-0.5-3.1c0-0.5-0.1-1-0.2-1.5c-0.2-0.5-0.2-1.1-0.1-1.6c0.2-1.2,0.2,2.4,0.4,0.9l-0.1-1.1
		c-0.1-0.7-0.2-1.3-0.2-2.1c0-0.4,0.1-0.8,0.3-1.2C1.5,21.3,1.7,21,2,20c0-0.5,0-0.6,0-0.8c-0.8,1.9,0.4-2.1,0.9-3.4
		c0.2-0.7,0.5-1.4,0.9-2c0.2-0.3,0.4-0.6,0.6-0.8c0.7-0.7,1.4-1.6,1.9-2.5c-0.5,0.4-0.1-0.2,0.5-0.9L7,9.2l0.1-0.2L7.2,9l0,0l0,0
		l0,0c0.3,0-0.5,0-0.4,0l0,0l0,0l0,0c0.2,0.2,0.4,0.4,0.6,0.6c0.4,0.4,0.8,0.7,1.1,0.9c0.6,0.5,1.1,1.1,1.6,1.7
		c0.3,0.2,0.9,0.8,1.1,0.8c-0.3-0.7-0.8-1.4-1.3-2c-0.4-0.5-0.8-1-1.3-1.6L7.9,8.5L7.7,8.3L7.6,8.1l0,0C5.3,8.3,7,8.2,6.5,8.2l0,0
		l0,0l0,0l0,0L6.3,8.3L5.9,8.8C5.8,8.8,5.8,8.9,5.8,8.9"/>
	<path id="Tracé_1527" style="clip-path:url(#SVGID_00000068649275090123727400000015955126629154896304_);fill:#AFDA19;" d="
		M36.9,11.5c2.5,2.2,2.6,6,0.4,8.5s-6,2.6-8.5,0.4l-4,4.4l-4.5-4c2.2-2.5,2-6.2-0.4-8.5s-6.2-2-8.5,0.4l-4.4-4
		c8.9-9.8,24-10.6,33.8-1.7L36.9,11.5z"/>
	<path id="Tracé_1528" style="clip-path:url(#SVGID_00000068649275090123727400000015955126629154896304_);fill:#ABC52A;" d="
		M18.5,1c-0.7,0.2-2,0.6-1.8,0.4h-0.2C17.1,1.3,19.8,0.5,18.5,1"/>
	<path id="Tracé_1529" style="clip-path:url(#SVGID_00000068649275090123727400000015955126629154896304_);fill:#FFFFFF;" d="
		M18.8,1.4C18.1,1.6,18.6,1.4,18.8,1.4c0.2-0.2,0.5-0.2,0.8-0.3C19.9,1.2,19.1,1.3,18.8,1.4"/>
	<path id="Tracé_1530" style="clip-path:url(#SVGID_00000068649275090123727400000015955126629154896304_);fill:#ABC52A;" d="
		M18.7,2.5l0.3,0c-0.3,0-0.6,0.1-0.9,0.2c0.3-0.2,0.6-0.3,0.9-0.4C18.9,2.4,18.4,2.5,18.7,2.5"/>
	<path id="Tracé_1531" style="clip-path:url(#SVGID_00000068649275090123727400000015955126629154896304_);fill:#AFDA19;" d="
		M7.2,8.2C7.2,8.5,8,8,8.8,7.4L8.7,7.8C8.3,8.2,7.9,8.5,7.5,9L7.4,9l0,0c-0.1-1.3,0-0.4,0-0.6l0,0l0,0l0,0l0,0l0,0l0.2,0.2L8,9
		l0.8,0.7C9.2,9.9,8,8.8,8.9,9.6c0.1,0.1,0,0.1,0.1,0.3c0.3,0.2,0.5,0.4,0.8,0.5c0.2,0.1,0.4,0.2,0.5,0.4c0.1,0.1,0.3,0.2,0.4,0.4
		c0.1,0.1,0.3,0.3,0.5,0.5c0,0.1,0.1,0.2,0.1,0.3c0.1-0.1,0.2-0.2,0.3-0.2c0.2-0.2,0.5-0.4,0.7-0.5c0.5-0.3,1-0.6,1.6-0.7
		c1.1-0.4,2.3-0.4,3.5-0.1c2.3,0.5,4.2,2.3,4.8,4.6c0.3,0.6,0.4,1.3,0.4,2c0,0.8-0.2,1.7-0.4,2.5h-0.1c-0.1,0.5-0.4,0.9-0.7,1.3
		c0,0-0.1,0-0.1,0.1c0,0,0,0.1,0.1,0.1c0.1,0.1,0.3,0.4,0.5,0.5c0,0.1-0.1,0-0.2-0.1c-0.1-0.1-0.4-0.4-0.5-0.4l-0.2-0.2
		c0,0,0-0.1-0.1,0c0.4,0.4,0.9,0.9,1.4,1.2c0.6,0.4,1.1,0.9,1.5,1.4c0.2,0.2,0.4,0.3,0.5,0.5c0.1,0.1,0.1,0.1,0.2,0.2
		c0.1,0,0.1,0.1,0.2,0.1l0.1-0.2c0-0.1-0.1,0-0.1-0.2l0.1-0.1l0.3-0.3l0.6-0.6c0.4-0.4,0.7-0.6,1-0.9s0.6-0.5,0.9-0.8
		c0.2-0.2,0.3-0.3,0.6-0.6l0.4-0.5c0,0,0.1-0.1,0.1-0.1l0.1,0.1c0.1,0.1,0.2,0.1,0.3,0.2c0,0,0.2,0.1,0.5,0.3
		c0.2,0.1,0.3,0.2,0.5,0.2c0.1,0,0.2,0,0.2,0c-0.1-0.1-0.1-0.1-0.2-0.1l-0.5-0.4L29,19.6l-0.2-0.1c-0.1-0.1-0.1,0.1-0.1,0.1
		l-0.3,0.3L28,20.3l-0.2,0.2l-0.1,0.1c0.2-0.2,0.5-0.5,0.7-0.8l0.4-0.5l0.5,0.4l0.4,0.3c0.1,0.1,0.2,0.1,0.3,0.2
		c0.1,0,0.1,0.1,0.1,0c0.6,0.5,1.4,0.8,2.2,0.8c0.8,0,1.3-0.1,0.3,0.2c-0.7-0.1-1.5-0.3-2.2-0.5c2.2,1.2,5,0.7,6.6-1.2
		c0.1-0.2,0.2-0.4,0.3-0.6c0.6-0.5,1-1.2,1.1-1.9c0.1-0.5,0.1-1.1,0-0.9c-0.1,0.5-0.2,1.1-0.4,1.6c-0.3,0.7-0.6,1.1-0.3,0.3
		c0.5-1.1,0.6-2.3,0.3-3.5c-0.2-1-0.7-1.9-1.4-2.7c0.8,0.8,1.5,1.7,1.9,2.8c0.6,2.3-0.2,4.7-2,6.1c-1.9,1.4-4.4,1.7-6.5,0.7
		c-0.1-0.1-1-0.8-0.7-0.7c-0.1-0.1-0.2-0.2-0.4-0.3c-0.1-0.1-0.1,0-0.2,0.1l-0.2,0.2c-0.2,0.2-0.4,0.5-0.7,0.6
		c-0.5,0.6-1,1.2-1.5,1.7c-0.5,0.5-1,1.1-1.5,1.6c-1.4-1.3-2.8-2.6-4-3.7c0.1,0.1,0,0.2-0.1,0.1c0,0-0.2-0.1-0.2-0.2
		c0.1-0.1,0.2-0.2,0.3-0.3c0.4-0.5,0.7-1.1,0.9-1.8c0.4-1,0.5-2.1,0.2-3.2c0-0.1-0.3-0.7-0.3-0.5c0.2,0.6,0.3,1.1,0.3,1.7
		c-0.1-0.9-0.3-1.8-0.7-2.6c0.1,0.2,0.2,0.3,0.3,0.5c-0.4-1-0.9-1.8-1.7-2.5c-0.7-0.7-1.6-1.1-2.6-1.2c0.5,0.1,0.9,0.3,1.3,0.6
		c-1-0.5-2.2-0.6-3.3-0.5c-1,0.1-1.9,0.5-2.7,1.1c0.7-0.4,1.4-0.8,2.2-1c0.7-0.2,1.3-0.1,1.3,0c-0.8,0.1-1.6,0.3-2.3,0.5
		c-0.8,0.3-1.5,0.8-2.1,1.5l-0.1,0.1l-0.1-0.1L11.3,13L11,12.7l-0.5-0.4l-0.8-0.7c-0.6-0.5-1.1-0.9-1.6-1.4L7.3,9.4L6.9,9l0,0l0,0
		l0,0l0,0c0-0.9,0-0.3,0-0.5l0,0l0,0L7,8.4L7.2,8.2"/>
	<path id="Tracé_1532" style="clip-path:url(#SVGID_00000068649275090123727400000015955126629154896304_);fill:#ABC52A;" d="
		M9.7,12l0.7,0.6c0.2,0.2,0.4,0.4,0.7,0.6l0.5,0.4c0.1,0,0.2-0.2,0.3-0.3c0.2-0.3,0.4-0.5,0.6-0.7c0.3-0.3,0.7-0.6,1.1-0.7
		c-0.2,0.2,0.9-0.2,1.7-0.3c0.8-0.2,1.6-0.1,2.4,0.2c0.4,0.2,0.3,0.2-0.5,0c-1.2-0.3-2.4-0.2-3.5,0.4c-0.3,0.1-0.5,0.3-0.8,0.5
		l-0.2,0.1c-0.1,0.1-0.2,0.2-0.3,0.3l-0.7,0.6l-0.1,0.1l-0.1-0.1l-0.2-0.2l-0.3-0.3l-0.6-0.6C10.1,12.4,9.9,12.2,9.7,12"/>
	<path id="Tracé_1533" style="clip-path:url(#SVGID_00000068649275090123727400000015955126629154896304_);fill:#FFFFFF;" d="
		M8.3,9.9c1.1,0.9,0.5,0.8,1.5,1.6c-0.5-0.3-0.6-0.5-1.5-1.4l0.6,0.4L8.3,9.9z"/>
	<path id="Tracé_1534" style="clip-path:url(#SVGID_00000068649275090123727400000015955126629154896304_);fill:#ABC52A;" d="
		M17.9,11.5c0.5,0.2,1,0.5,1.5,0.9c0.5,0.4,0.7,0.8,0.7,0.9c0.1,0.1-0.1,0,0.2,0.3c-0.3-0.5-0.7-0.9-1.2-1.2
		C18.5,11.9,18,11.6,17.9,11.5"/>
	<path id="Tracé_1535" style="clip-path:url(#SVGID_00000068649275090123727400000015955126629154896304_);fill:#FFFFFF;" d="
		M14,10.8c0.6-0.2,1.2-0.3,1.8-0.3C15.2,10.6,14.6,10.7,14,10.8"/>
	<path id="Tracé_1536" style="clip-path:url(#SVGID_00000068649275090123727400000015955126629154896304_);fill:#ABC52A;" d="
		M19,11.7c-0.1-0.2,0.6,0.4,0.8,0.6c0.1,0.1,0.2,0.3,0.3,0.4C19.8,12.3,19.3,12,19,11.7"/>
	<path id="Tracé_1537" style="clip-path:url(#SVGID_00000068649275090123727400000015955126629154896304_);fill:#ABC52A;" d="
		M21.3,18.2c-0.4,1.1,0.2-1.2-0.2,0.1c0.1-0.3,0.1-0.5,0.2-0.8l0.2-0.3C21.4,17.5,21.4,17.9,21.3,18.2"/>
	<path id="Tracé_1538" style="clip-path:url(#SVGID_00000068649275090123727400000015955126629154896304_);fill:#ABC52A;" d="
		M20.4,19.7c-0.1,0.1-0.1,0.2-0.2,0.3c-0.1,0.1-0.2,0.3-0.3,0.4c-0.1,0.1-0.1,0.1-0.2,0.2c0,0.1-0.2,0.2-0.1,0.2
		c0.1,0.1,0.3,0.3,0.5,0.5L19.7,21l-0.1-0.1c-0.1,0-0.1-0.1,0-0.1l0.3-0.3C20,20.3,20.2,20,20.4,19.7"/>
	<path id="Tracé_1539" style="clip-path:url(#SVGID_00000068649275090123727400000015955126629154896304_);fill:#ABC52A;" d="
		M21.5,18.5c-0.2,0.6-0.2,0.5-0.4,0.8C21.2,19.1,21.6,17.9,21.5,18.5"/>
	<path id="Tracé_1540" style="clip-path:url(#SVGID_00000068649275090123727400000015955126629154896304_);fill:#ABC52A;" d="
		M23.7,22.5c-0.4-0.2-0.7-0.5-1-0.8l-0.6-0.5l-0.3-0.3c-0.1-0.1-0.3-0.2-0.3-0.2l1,0.8C22.9,21.8,23.2,22.1,23.7,22.5"/>
	<path id="Tracé_1541" style="clip-path:url(#SVGID_00000068649275090123727400000015955126629154896304_);fill:#ABC52A;" d="
		M27.9,0.3c0.5,0.1,1.2,0.2,1.6,0.2l-0.3-0.1C28.8,0.3,28.4,0.3,27.9,0.3"/>
	<path id="Tracé_1542" style="clip-path:url(#SVGID_00000068649275090123727400000015955126629154896304_);fill:#ABC52A;" d="
		M20,0.5c-0.5,0.3,0.4,0,1.5-0.1c0.7,0,1.5-0.2,2.2-0.2c0.7,0,1.5-0.1,2.2-0.1l0.9,0C25.8,0,24.7-0.1,23.6,0C22.4,0,21.2,0.2,20,0.5
		"/>
	<path id="Tracé_1543" style="clip-path:url(#SVGID_00000068649275090123727400000015955126629154896304_);fill:#FFFFFF;" d="
		M19.1,1.5c1-0.1,2.3-0.5,3.1-0.6c-0.7,0-1.4,0.1-2.1,0.3c-0.6,0.1-1.2,0.2-1.7,0.4C18.4,1.7,18.9,1.6,19.1,1.5"/>
	<path id="Tracé_1544" style="clip-path:url(#SVGID_00000068649275090123727400000015955126629154896304_);fill:#AFDA19;" d="
		M40.7,5.7c-1.6-1.4-3.5-2.6-5.5-3.4c0.8,0.5,0.8,0.5,2.1,1.2c-1.1-0.3-1.9-1.1-3.2-1.6c1,0.4-0.4,0-1.2-0.3
		c-2.1-0.8-4.4-1.2-6.6-1.3c-0.5,0-1.6,0-2.5,0c-0.9,0.1-1.6,0.2-1.3,0.2c-1.4,0.1-1.6,0.1-2.7,0.2l-2.2,0.6
		c-0.7,0.2-1.4,0.4-2.1,0.6c-0.7,0.2-1.4,0.5-2.1,0.8c-0.7,0.3-1.4,0.8-2.1,1.3c0.1-0.2-1.3,0.7-1.8,1.2C8.3,6.1,6,8.6,6.7,8.2
		c0.5-0.4,1-0.9,1.5-1.4C8.7,6.2,9.3,5.7,10,5.3c2.2-1.4-2.1,1.7-1.9,2C8.4,7,8.6,7,9.5,6.2c-1.8,1.6,0.9-0.4,0.1,0.4l1.2-0.9
		c0.3-0.2,0.6-0.3,0.8-0.4c0.4-0.2,0.7-0.3,1.3-0.6C14.2,4,13.8,4,14.1,3.7c1.4-0.7,2.8-1.2,4.3-1.6c-0.5,0.3,0.1,0.2,1.1,0
		c1-0.2,2.1-0.4,3.1-0.5c0.5,0,1-0.1,1.5-0.2c0.5-0.2,1.1-0.2,1.6-0.1c1.2,0.2-2.4,0.2-0.9,0.4l1.1-0.1c0.7-0.1,1.3-0.2,2.1-0.2
		c0.4,0,0.8,0.1,1.2,0.3c-1-0.1-0.7,0.1,0.3,0.3c0.5,0,0.6,0,0.8,0c-1.9-0.8,2.1,0.4,3.4,0.9c0.7,0.2,1.4,0.5,2,0.9
		c0.3,0.2,0.6,0.4,0.8,0.6c0.7,0.7,1.6,1.4,2.5,1.9c-0.4-0.5,0.2-0.1,1,0.5L40.4,7l0.2,0.1l0.1,0.1l0,0l0,0l0,0c0,0.3,0-0.5,0-0.4
		l0,0l0,0l0,0c-0.2,0.2-0.4,0.4-0.6,0.6c-0.4,0.4-0.7,0.8-0.9,1.1c-0.5,0.6-1.1,1.1-1.7,1.6c-0.2,0.3-0.8,0.9-0.8,1.1
		c0.7-0.3,1.4-0.8,2-1.3c0.5-0.4,1-0.8,1.6-1.3l0.9-0.8l0.2-0.2l0.1-0.1l0,0c-0.1-2.3,0-0.6-0.1-1.2l0,0l0,0l0,0l0,0l-0.1-0.1
		l-0.5-0.5C40.8,5.8,40.8,5.8,40.7,5.7"/>
</g>
</svg>
